[2026-03-25T00:45:34] SOURCE: D:\apps\ErsatzTV-HLS-Copy-Prep\source\06.mp4
[2026-03-25T00:45:34] TARGET: D:\apps\ErsatzTV-HLS-Copy-Prep\target\06.mp4
[2026-03-25T00:45:34] FPS: 25.000000
[2026-03-25T00:45:34] CMD: ["D:\\apps\\ErsatzTV-HLS-Copy-Prep\\bin\\ffmpeg.exe", "-y", "-hide_banner", "-loglevel", "info", "-stats_period", "5", "-progress", "pipe:1", "-i", "D:\\apps\\ErsatzTV-HLS-Copy-Prep\\source\\06.mp4", "-map", "0:v:0", "-map", "0:a:0?", "-sn", "-dn", "-vf", "scale=trunc(iw/2)*2:trunc(ih/2)*2,setsar=1,fps=25", "-c:v", "libx264", "-preset", "medium", "-crf", "18", "-pix_fmt", "yuv420p", "-profile:v", "high", "-level", "4.1", "-g", "25", "-keyint_min", "25", "-sc_threshold", "0", "-bf", "0", "-force_key_frames", "expr:gte(t,n_forced*1)", "-c:a", "aac", "-b:a", "192k", "-ar", "48000", "-ac", "2", "-movflags", "+faststart", "D:\\apps\\ErsatzTV-HLS-Copy-Prep\\target\\06.mp4"]

ffmpeg stats and -progress period set to 5.
Input #0, mov,mp4,m4a,3gp,3g2,mj2, from 'D:\apps\ErsatzTV-HLS-Copy-Prep\source\06.mp4':
  Metadata:
    major_brand     : isom
    minor_version   : 512
    compatible_brands: isomiso2avc1mp41
    date            : 2023-08-18T12:02:42.4224741+08:00
    encoder         : Lavf58.32.104
  Duration: 00:26:09.22, start: 0.000000, bitrate: 1525 kb/s
  Stream #0:0[0x1](und): Video: h264 (High) (avc1 / 0x31637661), yuv420p(tv, bt709, progressive), 1920x1080 [SAR 1:1 DAR 16:9], 1426 kb/s, 25 fps, 25 tbr, 90k tbn (default)
      Metadata:
        handler_name    : VideoHandler
        vendor_id       : [0][0][0][0]
  Stream #0:1[0x2](und): Audio: aac (LC) (mp4a / 0x6134706D), 48000 Hz, stereo, fltp, 93 kb/s (default)
      Metadata:
        handler_name    : SoundHandler
        vendor_id       : [0][0][0][0]
Stream mapping:
  Stream #0:0 -> #0:0 (h264 (native) -> h264 (libx264))
  Stream #0:1 -> #0:1 (aac (native) -> aac (native))
Press [q] to stop, [?] for help
[libx264 @ 000001bab6d82040] using SAR=1/1
[libx264 @ 000001bab6d82040] using cpu capabilities: MMX2 SSE2Fast SSSE3 SSE4.2 AVX
[libx264 @ 000001bab6d82040] profile High, level 4.1, 4:2:0, 8-bit
[libx264 @ 000001bab6d82040] 264 - core 165 - H.264/MPEG-4 AVC codec - Copyleft 2003-2025 - http://www.videolan.org/x264.html - options: cabac=1 ref=3 deblock=1:0:0 analyse=0x3:0x113 me=hex subme=7 psy=1 psy_rd=1.00:0.00 mixed_ref=1 me_range=16 chroma_me=1 trellis=1 8x8dct=1 cqm=0 deadzone=21,11 fast_pskip=1 chroma_qp_offset=-2 threads=12 lookahead_threads=2 sliced_threads=0 nr=0 decimate=1 interlaced=0 bluray_compat=0 constrained_intra=0 bframes=0 weightp=2 keyint=25 keyint_min=13 scenecut=0 intra_refresh=0 rc_lookahead=25 rc=crf mbtree=1 crf=18.0 qcomp=0.60 qpmin=0 qpmax=69 qpstep=4 ip_ratio=1.40 aq=1:1.00
Output #0, mp4, to 'D:\apps\ErsatzTV-HLS-Copy-Prep\target\06.mp4':
  Metadata:
    major_brand     : isom
    minor_version   : 512
    compatible_brands: isomiso2avc1mp41
    date            : 2023-08-18T12:02:42.4224741+08:00
    encoder         : Lavf61.7.100
  Stream #0:0(und): Video: h264 (avc1 / 0x31637661), yuv420p(tv, bt709, progressive), 1920x1080 [SAR 1:1 DAR 16:9], q=2-31, 25 fps, 12800 tbn (default)
      Metadata:
        handler_name    : VideoHandler
        vendor_id       : [0][0][0][0]
        encoder         : Lavc61.19.101 libx264
      Side data:
        cpb: bitrate max/min/avg: 0/0/0 buffer size: 0 vbv_delay: N/A
  Stream #0:1(und): Audio: aac (LC) (mp4a / 0x6134706D), 48000 Hz, stereo, fltp, 192 kb/s (default)
      Metadata:
        handler_name    : SoundHandler
        vendor_id       : [0][0][0][0]
        encoder         : Lavc61.19.101 aac
frame=  296 fps= 59 q=23.0 size=    2048KiB time=00:00:11.84 bitrate=1417.0kbits/s speed=2.36x    
frame=296
fps=59.05
stream_0_0_q=23.0
bitrate=1417.0kbits/s
total_size=2097200
out_time_us=11840000
out_time_ms=11840000
out_time=00:00:11.840000
dup_frames=0
drop_frames=0
speed=2.36x
progress=continue
frame=  514 fps= 51 q=23.0 size=    5120KiB time=00:00:20.56 bitrate=2040.0kbits/s speed=2.05x    
frame=514
fps=51.21
stream_0_0_q=23.0
bitrate=2040.0kbits/s
total_size=5242928
out_time_us=20560000
out_time_ms=20560000
out_time=00:00:20.560000
dup_frames=0
drop_frames=0
speed=2.05x
progress=continue
frame=  651 fps= 43 q=23.0 size=    8704KiB time=00:00:26.08 bitrate=2734.0kbits/s speed=1.73x    
frame=651
fps=43.19
stream_0_0_q=23.0
bitrate=2734.0kbits/s
total_size=8912944
out_time_us=26080000
out_time_ms=26080000
out_time=00:00:26.080000
dup_frames=0
drop_frames=0
speed=1.73x
progress=continue
frame=  779 fps= 39 q=23.0 size=   12544KiB time=00:00:31.20 bitrate=3293.6kbits/s speed=1.55x    
frame=779
fps=38.79
stream_0_0_q=23.0
bitrate=3293.6kbits/s
total_size=12845104
out_time_us=31200000
out_time_ms=31200000
out_time=00:00:31.200000
dup_frames=0
drop_frames=0
speed=1.55x
progress=continue
frame=  904 fps= 36 q=23.0 size=   15872KiB time=00:00:36.20 bitrate=3591.8kbits/s speed=1.44x    
frame=904
fps=36.00
stream_0_0_q=23.0
bitrate=3591.8kbits/s
total_size=16252976
out_time_us=36200000
out_time_ms=36200000
out_time=00:00:36.200000
dup_frames=0
drop_frames=0
speed=1.44x
progress=continue
frame= 1021 fps= 34 q=23.0 size=   19968KiB time=00:00:40.88 bitrate=4001.4kbits/s speed=1.36x    
frame=1021
fps=33.88
stream_0_0_q=23.0
bitrate=4001.4kbits/s
total_size=20447280
out_time_us=40880000
out_time_ms=40880000
out_time=00:00:40.880000
dup_frames=0
drop_frames=0
speed=1.36x
progress=continue
frame= 1122 fps= 32 q=23.0 size=   23552KiB time=00:00:44.92 bitrate=4295.2kbits/s speed=1.28x    
frame=1122
fps=31.92
stream_0_0_q=23.0
bitrate=4295.2kbits/s
total_size=24117296
out_time_us=44920000
out_time_ms=44920000
out_time=00:00:44.920000
dup_frames=0
drop_frames=0
speed=1.28x
progress=continue
frame= 1224 fps= 30 q=23.0 size=   27648KiB time=00:00:49.00 bitrate=4622.3kbits/s speed=1.22x    
frame=1224
fps=30.47
stream_0_0_q=23.0
bitrate=4622.3kbits/s
total_size=28311600
out_time_us=49000000
out_time_ms=49000000
out_time=00:00:49.000000
dup_frames=0
drop_frames=0
speed=1.22x
progress=continue
frame= 1348 fps= 30 q=23.0 size=   31232KiB time=00:00:53.96 bitrate=4741.5kbits/s speed=1.19x    
frame=1348
fps=29.82
stream_0_0_q=23.0
bitrate=4741.5kbits/s
total_size=31981616
out_time_us=53960000
out_time_ms=53960000
out_time=00:00:53.960000
dup_frames=0
drop_frames=0
speed=1.19x
progress=continue
frame= 1465 fps= 29 q=20.0 size=   35584KiB time=00:00:58.56 bitrate=4977.9kbits/s speed=1.16x    
frame=1465
fps=29.14
stream_0_0_q=20.0
bitrate=4977.9kbits/s
total_size=36438064
out_time_us=58560000
out_time_ms=58560000
out_time=00:00:58.560000
dup_frames=0
drop_frames=0
speed=1.16x
progress=continue
frame= 1562 fps= 28 q=23.0 size=   40448KiB time=00:01:02.48 bitrate=5303.3kbits/s speed=1.13x    
frame=1562
fps=28.20
stream_0_0_q=23.0
bitrate=5303.3kbits/s
total_size=41418800
out_time_us=62480000
out_time_ms=62480000
out_time=00:01:02.480000
dup_frames=0
drop_frames=0
speed=1.13x
progress=continue
frame= 1659 fps= 27 q=23.0 size=   45056KiB time=00:01:06.40 bitrate=5558.7kbits/s speed= 1.1x    
frame=1659
fps=27.44
stream_0_0_q=23.0
bitrate=5558.7kbits/s
total_size=46137392
out_time_us=66400000
out_time_ms=66400000
out_time=00:01:06.400000
dup_frames=0
drop_frames=0
speed= 1.1x
progress=continue
frame= 1782 fps= 27 q=23.0 size=   50176KiB time=00:01:11.32 bitrate=5763.4kbits/s speed=1.09x    
frame=1782
fps=27.22
stream_0_0_q=23.0
bitrate=5763.4kbits/s
total_size=51380272
out_time_us=71320000
out_time_ms=71320000
out_time=00:01:11.320000
dup_frames=0
drop_frames=0
speed=1.09x
progress=continue
frame= 1891 fps= 27 q=23.0 size=   54016KiB time=00:01:15.68 bitrate=5847.0kbits/s speed=1.07x    
frame=1891
fps=26.82
stream_0_0_q=23.0
bitrate=5847.0kbits/s
total_size=55312432
out_time_us=75680000
out_time_ms=75680000
out_time=00:01:15.680000
dup_frames=0
drop_frames=0
speed=1.07x
progress=continue
frame= 2005 fps= 27 q=23.0 size=   58112KiB time=00:01:20.24 bitrate=5932.9kbits/s speed=1.06x    
frame=2005
fps=26.55
stream_0_0_q=23.0
bitrate=5932.9kbits/s
total_size=59506736
out_time_us=80240000
out_time_ms=80240000
out_time=00:01:20.240000
dup_frames=0
drop_frames=0
speed=1.06x
progress=continue
frame= 2107 fps= 26 q=23.0 size=   62464KiB time=00:01:24.32 bitrate=6068.6kbits/s speed=1.05x    
frame=2107
fps=26.17
stream_0_0_q=23.0
bitrate=6068.6kbits/s
total_size=63963184
out_time_us=84320000
out_time_ms=84320000
out_time=00:01:24.320000
dup_frames=0
drop_frames=0
speed=1.05x
progress=continue
frame= 2223 fps= 26 q=23.0 size=   66048KiB time=00:01:28.96 bitrate=6082.1kbits/s speed=1.04x    
frame=2223
fps=25.99
stream_0_0_q=23.0
bitrate=6082.1kbits/s
total_size=67633200
out_time_us=88960000
out_time_ms=88960000
out_time=00:01:28.960000
dup_frames=0
drop_frames=0
speed=1.04x
progress=continue
frame= 2364 fps= 26 q=23.0 size=   70656KiB time=00:01:34.56 bitrate=6121.1kbits/s speed=1.04x    
frame=2364
fps=26.10
stream_0_0_q=23.0
bitrate=6121.1kbits/s
total_size=72351792
out_time_us=94560000
out_time_ms=94560000
out_time=00:01:34.560000
dup_frames=0
drop_frames=0
speed=1.04x
progress=continue
frame= 2489 fps= 26 q=23.0 size=   75008KiB time=00:01:39.60 bitrate=6169.3kbits/s speed=1.04x    
frame=2489
fps=26.03
stream_0_0_q=23.0
bitrate=6169.3kbits/s
total_size=76808240
out_time_us=99600000
out_time_ms=99600000
out_time=00:01:39.600000
dup_frames=0
drop_frames=0
speed=1.04x
progress=continue
frame= 2615 fps= 26 q=20.0 size=   79360KiB time=00:01:44.64 bitrate=6212.9kbits/s speed=1.04x    
frame=2615
fps=25.97
stream_0_0_q=20.0
bitrate=6212.9kbits/s
total_size=81264688
out_time_us=104640000
out_time_ms=104640000
out_time=00:01:44.640000
dup_frames=0
drop_frames=0
speed=1.04x
progress=continue
frame= 2771 fps= 26 q=23.0 size=   84224KiB time=00:01:50.88 bitrate=6222.6kbits/s speed=1.05x    
frame=2771
fps=26.21
stream_0_0_q=23.0
bitrate=6222.6kbits/s
total_size=86245424
out_time_us=110880000
out_time_ms=110880000
out_time=00:01:50.880000
dup_frames=0
drop_frames=0
speed=1.05x
progress=continue
frame= 2995 fps= 27 q=23.0 size=   86272KiB time=00:01:59.84 bitrate=5897.4kbits/s speed=1.08x    
frame=2995
fps=27.04
stream_0_0_q=23.0
bitrate=5897.4kbits/s
total_size=88342576
out_time_us=119840000
out_time_ms=119840000
out_time=00:01:59.840000
dup_frames=0
drop_frames=0
speed=1.08x
progress=continue
frame= 3112 fps= 27 q=23.0 size=   89088KiB time=00:02:04.52 bitrate=5861.0kbits/s speed=1.08x    
frame=3112
fps=26.87
stream_0_0_q=23.0
bitrate=5861.0kbits/s
total_size=91226160
out_time_us=124520000
out_time_ms=124520000
out_time=00:02:04.520000
dup_frames=0
drop_frames=0
speed=1.08x
progress=continue
frame= 3239 fps= 27 q=23.0 size=   92160KiB time=00:02:09.60 bitrate=5825.4kbits/s speed=1.07x    
frame=3239
fps=26.81
stream_0_0_q=23.0
bitrate=5825.4kbits/s
total_size=94371888
out_time_us=129600000
out_time_ms=129600000
out_time=00:02:09.600000
dup_frames=0
drop_frames=0
speed=1.07x
progress=continue
frame= 3380 fps= 27 q=23.0 size=   96000KiB time=00:02:15.24 bitrate=5815.1kbits/s speed=1.07x    
frame=3380
fps=26.86
stream_0_0_q=23.0
bitrate=5815.1kbits/s
total_size=98304048
out_time_us=135240000
out_time_ms=135240000
out_time=00:02:15.240000
dup_frames=0
drop_frames=0
speed=1.07x
progress=continue
frame= 3540 fps= 27 q=20.0 size=   99840KiB time=00:02:21.64 bitrate=5774.4kbits/s speed=1.08x    
frame=3540
fps=27.05
stream_0_0_q=20.0
bitrate=5774.4kbits/s
total_size=102236208
out_time_us=141640000
out_time_ms=141640000
out_time=00:02:21.640000
dup_frames=0
drop_frames=0
speed=1.08x
progress=continue
frame= 3696 fps= 27 q=23.0 size=  103936KiB time=00:02:27.88 bitrate=5757.7kbits/s speed=1.09x    
frame=3696
fps=27.20
stream_0_0_q=23.0
bitrate=5757.7kbits/s
total_size=106430512
out_time_us=147880000
out_time_ms=147880000
out_time=00:02:27.880000
dup_frames=0
drop_frames=0
speed=1.09x
progress=continue
frame= 3854 fps= 27 q=23.0 size=  107008KiB time=00:02:34.20 bitrate=5684.9kbits/s speed=1.09x    
frame=3854
fps=27.35
stream_0_0_q=23.0
bitrate=5684.9kbits/s
total_size=109576240
out_time_us=154200000
out_time_ms=154200000
out_time=00:02:34.200000
dup_frames=0
drop_frames=0
speed=1.09x
progress=continue
frame= 4009 fps= 27 q=23.0 size=  110592KiB time=00:02:40.40 bitrate=5648.2kbits/s speed= 1.1x    
frame=4009
fps=27.47
stream_0_0_q=23.0
bitrate=5648.2kbits/s
total_size=113246256
out_time_us=160400000
out_time_ms=160400000
out_time=00:02:40.400000
dup_frames=0
drop_frames=0
speed= 1.1x
progress=continue
frame= 4178 fps= 28 q=23.0 size=  114688KiB time=00:02:47.12 bitrate=5621.9kbits/s speed=1.11x    
frame=4178
fps=27.67
stream_0_0_q=23.0
bitrate=5621.9kbits/s
total_size=117440560
out_time_us=167120000
out_time_ms=167120000
out_time=00:02:47.120000
dup_frames=0
drop_frames=0
speed=1.11x
progress=continue
frame= 4312 fps= 28 q=23.0 size=  118272KiB time=00:02:52.48 bitrate=5617.4kbits/s speed=1.11x    
frame=4312
fps=27.63
stream_0_0_q=23.0
bitrate=5617.4kbits/s
total_size=121110576
out_time_us=172480000
out_time_ms=172480000
out_time=00:02:52.480000
dup_frames=0
drop_frames=0
speed=1.11x
progress=continue
frame= 4444 fps= 28 q=23.0 size=  121088KiB time=00:02:57.76 bitrate=5580.3kbits/s speed= 1.1x    
frame=4444
fps=27.59
stream_0_0_q=23.0
bitrate=5580.3kbits/s
total_size=123994160
out_time_us=177760000
out_time_ms=177760000
out_time=00:02:57.760000
dup_frames=0
drop_frames=0
speed= 1.1x
progress=continue
frame= 4608 fps= 28 q=23.0 size=  125184KiB time=00:03:04.36 bitrate=5562.5kbits/s speed=1.11x    
frame=4608
fps=27.74
stream_0_0_q=23.0
bitrate=5562.5kbits/s
total_size=128188464
out_time_us=184360000
out_time_ms=184360000
out_time=00:03:04.360000
dup_frames=0
drop_frames=0
speed=1.11x
progress=continue
frame= 4727 fps= 28 q=23.0 size=  128512KiB time=00:03:09.12 bitrate=5566.7kbits/s speed=1.11x    
frame=4727
fps=27.62
stream_0_0_q=23.0
bitrate=5566.7kbits/s
total_size=131596336
out_time_us=189120000
out_time_ms=189120000
out_time=00:03:09.120000
dup_frames=0
drop_frames=0
speed=1.11x
progress=continue
frame= 4856 fps= 28 q=23.0 size=  131584KiB time=00:03:14.28 bitrate=5548.4kbits/s speed= 1.1x    
frame=4856
fps=27.56
stream_0_0_q=23.0
bitrate=5548.4kbits/s
total_size=134742064
out_time_us=194280000
out_time_ms=194280000
out_time=00:03:14.280000
dup_frames=0
drop_frames=0
speed= 1.1x
progress=continue
frame= 4987 fps= 28 q=23.0 size=  134656KiB time=00:03:19.44 bitrate=5531.0kbits/s speed= 1.1x    
frame=4987
fps=27.52
stream_0_0_q=23.0
bitrate=5531.0kbits/s
total_size=137887792
out_time_us=199440000
out_time_ms=199440000
out_time=00:03:19.440000
dup_frames=0
drop_frames=0
speed= 1.1x
progress=continue
frame= 5146 fps= 28 q=23.0 size=  137472KiB time=00:03:25.88 bitrate=5470.0kbits/s speed=1.11x    
frame=5146
fps=27.63
stream_0_0_q=23.0
bitrate=5470.0kbits/s
total_size=140771376
out_time_us=205880000
out_time_ms=205880000
out_time=00:03:25.880000
dup_frames=0
drop_frames=0
speed=1.11x
progress=continue
frame= 5318 fps= 28 q=23.0 size=  141824KiB time=00:03:32.68 bitrate=5462.8kbits/s speed=1.11x    
frame=5318
fps=27.81
stream_0_0_q=23.0
bitrate=5462.8kbits/s
total_size=145227824
out_time_us=212680000
out_time_ms=212680000
out_time=00:03:32.680000
dup_frames=0
drop_frames=0
speed=1.11x
progress=continue
frame= 5463 fps= 28 q=23.0 size=  145664KiB time=00:03:38.52 bitrate=5460.7kbits/s speed=1.11x    
frame=5463
fps=27.82
stream_0_0_q=23.0
bitrate=5460.7kbits/s
total_size=149159984
out_time_us=218520000
out_time_ms=218520000
out_time=00:03:38.520000
dup_frames=0
drop_frames=0
speed=1.11x
progress=continue
frame= 5613 fps= 28 q=23.0 size=  148992KiB time=00:03:44.56 bitrate=5435.3kbits/s speed=1.12x    
frame=5613
fps=27.87
stream_0_0_q=23.0
bitrate=5435.3kbits/s
total_size=152567856
out_time_us=224560000
out_time_ms=224560000
out_time=00:03:44.560000
dup_frames=0
drop_frames=0
speed=1.12x
progress=continue
frame= 5768 fps= 28 q=23.0 size=  152576KiB time=00:03:50.64 bitrate=5419.3kbits/s speed=1.12x    
frame=5768
fps=27.95
stream_0_0_q=23.0
bitrate=5419.3kbits/s
total_size=156237872
out_time_us=230640000
out_time_ms=230640000
out_time=00:03:50.640000
dup_frames=0
drop_frames=0
speed=1.12x
progress=continue
frame= 5906 fps= 28 q=23.0 size=  156672KiB time=00:03:56.28 bitrate=5431.9kbits/s speed=1.12x    
frame=5906
fps=27.92
stream_0_0_q=23.0
bitrate=5431.9kbits/s
total_size=160432176
out_time_us=236280000
out_time_ms=236280000
out_time=00:03:56.280000
dup_frames=0
drop_frames=0
speed=1.12x
progress=continue
frame= 6055 fps= 28 q=23.0 size=  160768KiB time=00:04:02.24 bitrate=5436.8kbits/s speed=1.12x    
frame=6055
fps=27.97
stream_0_0_q=23.0
bitrate=5436.8kbits/s
total_size=164626480
out_time_us=242240000
out_time_ms=242240000
out_time=00:04:02.240000
dup_frames=0
drop_frames=0
speed=1.12x
progress=continue
frame= 6203 fps= 28 q=23.0 size=  164608KiB time=00:04:07.96 bitrate=5438.3kbits/s speed=1.12x    
frame=6203
fps=28.00
stream_0_0_q=23.0
bitrate=5438.3kbits/s
total_size=168558640
out_time_us=247960000
out_time_ms=247960000
out_time=00:04:07.960000
dup_frames=0
drop_frames=0
speed=1.12x
progress=continue
frame= 6355 fps= 28 q=23.0 size=  168704KiB time=00:04:14.20 bitrate=5436.8kbits/s speed=1.12x    
frame=6355
fps=28.04
stream_0_0_q=23.0
bitrate=5436.8kbits/s
total_size=172752944
out_time_us=254200000
out_time_ms=254200000
out_time=00:04:14.200000
dup_frames=0
drop_frames=0
speed=1.12x
progress=continue
frame= 6510 fps= 28 q=23.0 size=  172288KiB time=00:04:20.44 bitrate=5419.2kbits/s speed=1.12x    
frame=6510
fps=28.10
stream_0_0_q=23.0
bitrate=5419.2kbits/s
total_size=176422960
out_time_us=260440000
out_time_ms=260440000
out_time=00:04:20.440000
dup_frames=0
drop_frames=0
speed=1.12x
progress=continue
frame= 6636 fps= 28 q=23.0 size=  176128KiB time=00:04:25.48 bitrate=5434.8kbits/s speed=1.12x    
frame=6636
fps=28.04
stream_0_0_q=23.0
bitrate=5434.8kbits/s
total_size=180355120
out_time_us=265480000
out_time_ms=265480000
out_time=00:04:25.480000
dup_frames=0
drop_frames=0
speed=1.12x
progress=continue
frame= 6781 fps= 28 q=23.0 size=  179712KiB time=00:04:31.28 bitrate=5426.9kbits/s speed=1.12x    
frame=6781
fps=28.06
stream_0_0_q=23.0
bitrate=5426.9kbits/s
total_size=184025136
out_time_us=271280000
out_time_ms=271280000
out_time=00:04:31.280000
dup_frames=0
drop_frames=0
speed=1.12x
progress=continue
frame= 6921 fps= 28 q=23.0 size=  183552KiB time=00:04:36.88 bitrate=5430.7kbits/s speed=1.12x    
frame=6921
fps=28.05
stream_0_0_q=23.0
bitrate=5430.7kbits/s
total_size=187957296
out_time_us=276880000
out_time_ms=276880000
out_time=00:04:36.880000
dup_frames=0
drop_frames=0
speed=1.12x
progress=continue
frame= 7057 fps= 28 q=23.0 size=  187648KiB time=00:04:42.32 bitrate=5444.9kbits/s speed=1.12x    
frame=7057
fps=28.03
stream_0_0_q=23.0
bitrate=5444.9kbits/s
total_size=192151600
out_time_us=282320000
out_time_ms=282320000
out_time=00:04:42.320000
dup_frames=0
drop_frames=0
speed=1.12x
progress=continue
frame= 7201 fps= 28 q=23.0 size=  190976KiB time=00:04:48.04 bitrate=5431.5kbits/s speed=1.12x    
frame=7201
fps=28.05
stream_0_0_q=23.0
bitrate=5431.5kbits/s
total_size=195559472
out_time_us=288040000
out_time_ms=288040000
out_time=00:04:48.040000
dup_frames=0
drop_frames=0
speed=1.12x
progress=continue
frame= 7339 fps= 28 q=23.0 size=  194560KiB time=00:04:53.60 bitrate=5428.6kbits/s speed=1.12x    
frame=7339
fps=28.03
stream_0_0_q=23.0
bitrate=5428.6kbits/s
total_size=199229488
out_time_us=293600000
out_time_ms=293600000
out_time=00:04:53.600000
dup_frames=0
drop_frames=0
speed=1.12x
progress=continue
frame= 7483 fps= 28 q=23.0 size=  198400KiB time=00:04:59.36 bitrate=5429.2kbits/s speed=1.12x    
frame=7483
fps=28.05
stream_0_0_q=23.0
bitrate=5429.2kbits/s
total_size=203161648
out_time_us=299360000
out_time_ms=299360000
out_time=00:04:59.360000
dup_frames=0
drop_frames=0
speed=1.12x
progress=continue
frame= 7647 fps= 28 q=23.0 size=  201984KiB time=00:05:05.92 bitrate=5408.8kbits/s speed=1.13x    
frame=7647
fps=28.13
stream_0_0_q=23.0
bitrate=5408.8kbits/s
total_size=206831664
out_time_us=305920000
out_time_ms=305920000
out_time=00:05:05.920000
dup_frames=0
drop_frames=0
speed=1.13x
progress=continue
frame= 7820 fps= 28 q=23.0 size=  205824KiB time=00:05:12.80 bitrate=5390.4kbits/s speed=1.13x    
frame=7820
fps=28.25
stream_0_0_q=23.0
bitrate=5390.4kbits/s
total_size=210763824
out_time_us=312800000
out_time_ms=312800000
out_time=00:05:12.800000
dup_frames=0
drop_frames=0
speed=1.13x
progress=continue
frame= 8003 fps= 28 q=23.0 size=  208640KiB time=00:05:20.16 bitrate=5338.5kbits/s speed=1.14x    
frame=8003
fps=28.39
stream_0_0_q=23.0
bitrate=5338.5kbits/s
total_size=213647408
out_time_us=320160000
out_time_ms=320160000
out_time=00:05:20.160000
dup_frames=0
drop_frames=0
speed=1.14x
progress=continue
frame= 8130 fps= 28 q=23.0 size=  210688KiB time=00:05:25.24 bitrate=5306.7kbits/s speed=1.13x    
frame=8130
fps=28.34
stream_0_0_q=23.0
bitrate=5306.7kbits/s
total_size=215744560
out_time_us=325240000
out_time_ms=325240000
out_time=00:05:25.240000
dup_frames=0
drop_frames=0
speed=1.13x
progress=continue
frame= 8267 fps= 28 q=23.0 size=  213504KiB time=00:05:30.72 bitrate=5288.5kbits/s speed=1.13x    
frame=8267
fps=28.32
stream_0_0_q=23.0
bitrate=5288.5kbits/s
total_size=218628144
out_time_us=330720000
out_time_ms=330720000
out_time=00:05:30.720000
dup_frames=0
drop_frames=0
speed=1.13x
progress=continue
frame= 8448 fps= 28 q=23.0 size=  216832KiB time=00:05:37.96 bitrate=5255.9kbits/s speed=1.14x    
frame=8448
fps=28.45
stream_0_0_q=23.0
bitrate=5255.9kbits/s
total_size=222036016
out_time_us=337960000
out_time_ms=337960000
out_time=00:05:37.960000
dup_frames=0
drop_frames=0
speed=1.14x
progress=continue
frame= 8653 fps= 29 q=23.0 size=  220928KiB time=00:05:46.16 bitrate=5228.3kbits/s speed=1.15x    
frame=8653
fps=28.65
stream_0_0_q=23.0
bitrate=5228.3kbits/s
total_size=226230320
out_time_us=346160000
out_time_ms=346160000
out_time=00:05:46.160000
dup_frames=0
drop_frames=0
speed=1.15x
progress=continue
frame= 8822 fps= 29 q=23.0 size=  223744KiB time=00:05:52.92 bitrate=5193.6kbits/s speed=1.15x    
frame=8822
fps=28.74
stream_0_0_q=23.0
bitrate=5193.6kbits/s
total_size=229113904
out_time_us=352920000
out_time_ms=352920000
out_time=00:05:52.920000
dup_frames=0
drop_frames=0
speed=1.15x
progress=continue
frame= 9029 fps= 29 q=23.0 size=  227584KiB time=00:06:01.20 bitrate=5161.6kbits/s speed=1.16x    
frame=9029
fps=28.94
stream_0_0_q=23.0
bitrate=5161.6kbits/s
total_size=233046064
out_time_us=361200000
out_time_ms=361200000
out_time=00:06:01.200000
dup_frames=0
drop_frames=0
speed=1.16x
progress=continue
frame= 9181 fps= 29 q=23.0 size=  231424KiB time=00:06:07.28 bitrate=5161.8kbits/s speed=1.16x    
frame=9181
fps=28.96
stream_0_0_q=23.0
bitrate=5161.8kbits/s
total_size=236978224
out_time_us=367280000
out_time_ms=367280000
out_time=00:06:07.280000
dup_frames=0
drop_frames=0
speed=1.16x
progress=continue
frame= 9340 fps= 29 q=20.0 size=  236800KiB time=00:06:13.64 bitrate=5191.8kbits/s speed=1.16x    
frame=9340
fps=29.00
stream_0_0_q=20.0
bitrate=5191.8kbits/s
total_size=242483248
out_time_us=373640000
out_time_ms=373640000
out_time=00:06:13.640000
dup_frames=0
drop_frames=0
speed=1.16x
progress=continue
frame= 9491 fps= 29 q=23.0 size=  239872KiB time=00:06:19.60 bitrate=5176.6kbits/s speed=1.16x    
frame=9491
fps=29.01
stream_0_0_q=23.0
bitrate=5176.6kbits/s
total_size=245628976
out_time_us=379600000
out_time_ms=379600000
out_time=00:06:19.600000
dup_frames=0
drop_frames=0
speed=1.16x
progress=continue
frame= 9630 fps= 29 q=23.0 size=  242944KiB time=00:06:25.24 bitrate=5166.1kbits/s speed=1.16x    
frame=9630
fps=28.98
stream_0_0_q=23.0
bitrate=5166.1kbits/s
total_size=248774704
out_time_us=385240000
out_time_ms=385240000
out_time=00:06:25.240000
dup_frames=0
drop_frames=0
speed=1.16x
progress=continue
frame= 9759 fps= 29 q=23.0 size=  246016KiB time=00:06:30.28 bitrate=5163.9kbits/s speed=1.16x    
frame=9759
fps=28.93
stream_0_0_q=23.0
bitrate=5163.9kbits/s
total_size=251920432
out_time_us=390280000
out_time_ms=390280000
out_time=00:06:30.280000
dup_frames=0
drop_frames=0
speed=1.16x
progress=continue
frame= 9880 fps= 29 q=23.0 size=  249088KiB time=00:06:35.24 bitrate=5162.8kbits/s speed=1.15x    
frame=9880
fps=28.86
stream_0_0_q=23.0
bitrate=5162.8kbits/s
total_size=255066160
out_time_us=395240000
out_time_ms=395240000
out_time=00:06:35.240000
dup_frames=0
drop_frames=0
speed=1.15x
progress=continue
frame= 9993 fps= 29 q=23.0 size=  252160KiB time=00:06:39.76 bitrate=5167.3kbits/s speed=1.15x    
frame=9993
fps=28.76
stream_0_0_q=23.0
bitrate=5167.3kbits/s
total_size=258211888
out_time_us=399760000
out_time_ms=399760000
out_time=00:06:39.760000
dup_frames=0
drop_frames=0
speed=1.15x
progress=continue
frame=10110 fps= 29 q=23.0 size=  255232KiB time=00:06:44.44 bitrate=5169.8kbits/s speed=1.15x    
frame=10110
fps=28.68
stream_0_0_q=23.0
bitrate=5169.8kbits/s
total_size=261357616
out_time_us=404440000
out_time_ms=404440000
out_time=00:06:44.440000
dup_frames=0
drop_frames=0
speed=1.15x
progress=continue
frame=10262 fps= 29 q=23.0 size=  258560KiB time=00:06:50.52 bitrate=5159.6kbits/s speed=1.15x    
frame=10262
fps=28.71
stream_0_0_q=23.0
bitrate=5159.6kbits/s
total_size=264765488
out_time_us=410520000
out_time_ms=410520000
out_time=00:06:50.520000
dup_frames=0
drop_frames=0
speed=1.15x
progress=continue
frame=10392 fps= 29 q=23.0 size=  261632KiB time=00:06:55.72 bitrate=5155.6kbits/s speed=1.15x    
frame=10392
fps=28.67
stream_0_0_q=23.0
bitrate=5155.6kbits/s
total_size=267911216
out_time_us=415720000
out_time_ms=415720000
out_time=00:06:55.720000
dup_frames=0
drop_frames=0
speed=1.15x
progress=continue
frame=10515 fps= 29 q=20.0 size=  264960KiB time=00:07:00.64 bitrate=5160.1kbits/s speed=1.14x    
frame=10515
fps=28.61
stream_0_0_q=20.0
bitrate=5160.1kbits/s
total_size=271319088
out_time_us=420640000
out_time_ms=420640000
out_time=00:07:00.640000
dup_frames=0
drop_frames=0
speed=1.14x
progress=continue
frame=10654 fps= 29 q=23.0 size=  268544KiB time=00:07:06.20 bitrate=5161.7kbits/s speed=1.14x    
frame=10654
fps=28.60
stream_0_0_q=23.0
bitrate=5161.7kbits/s
total_size=274989104
out_time_us=426200000
out_time_ms=426200000
out_time=00:07:06.200000
dup_frames=0
drop_frames=0
speed=1.14x
progress=continue
frame=10822 fps= 29 q=23.0 size=  271360KiB time=00:07:12.92 bitrate=5134.9kbits/s speed=1.15x    
frame=10822
fps=28.66
stream_0_0_q=23.0
bitrate=5134.9kbits/s
total_size=277872688
out_time_us=432920000
out_time_ms=432920000
out_time=00:07:12.920000
dup_frames=0
drop_frames=0
speed=1.15x
progress=continue
frame=10989 fps= 29 q=23.0 size=  274944KiB time=00:07:19.60 bitrate=5123.6kbits/s speed=1.15x    
frame=10989
fps=28.72
stream_0_0_q=23.0
bitrate=5123.6kbits/s
total_size=281542704
out_time_us=439600000
out_time_ms=439600000
out_time=00:07:19.600000
dup_frames=0
drop_frames=0
speed=1.15x
progress=continue
frame=11148 fps= 29 q=23.0 size=  278272KiB time=00:07:25.96 bitrate=5111.7kbits/s speed=1.15x    
frame=11148
fps=28.76
stream_0_0_q=23.0
bitrate=5111.7kbits/s
total_size=284950576
out_time_us=445960000
out_time_ms=445960000
out_time=00:07:25.960000
dup_frames=0
drop_frames=0
speed=1.15x
progress=continue
frame=11313 fps= 29 q=23.0 size=  281600KiB time=00:07:32.56 bitrate=5097.4kbits/s speed=1.15x    
frame=11313
fps=28.81
stream_0_0_q=23.0
bitrate=5097.4kbits/s
total_size=288358448
out_time_us=452560000
out_time_ms=452560000
out_time=00:07:32.560000
dup_frames=0
drop_frames=0
speed=1.15x
progress=continue
frame=11463 fps= 29 q=23.0 size=  284928KiB time=00:07:38.52 bitrate=5090.6kbits/s speed=1.15x    
frame=11463
fps=28.82
stream_0_0_q=23.0
bitrate=5090.6kbits/s
total_size=291766320
out_time_us=458520000
out_time_ms=458520000
out_time=00:07:38.520000
dup_frames=0
drop_frames=0
speed=1.15x
progress=continue
frame=11626 fps= 29 q=23.0 size=  288512KiB time=00:07:45.08 bitrate=5081.9kbits/s speed=1.15x    
frame=11626
fps=28.87
stream_0_0_q=23.0
bitrate=5081.9kbits/s
total_size=295436336
out_time_us=465080000
out_time_ms=465080000
out_time=00:07:45.080000
dup_frames=0
drop_frames=0
speed=1.15x
progress=continue
frame=11820 fps= 29 q=23.0 size=  291328KiB time=00:07:52.76 bitrate=5048.1kbits/s speed=1.16x    
frame=11820
fps=28.99
stream_0_0_q=23.0
bitrate=5048.1kbits/s
total_size=298319920
out_time_us=472760000
out_time_ms=472760000
out_time=00:07:52.760000
dup_frames=0
drop_frames=0
speed=1.16x
progress=continue
frame=11958 fps= 29 q=23.0 size=  294656KiB time=00:07:58.36 bitrate=5046.0kbits/s speed=1.16x    
frame=11958
fps=28.97
stream_0_0_q=23.0
bitrate=5046.0kbits/s
total_size=301727792
out_time_us=478360000
out_time_ms=478360000
out_time=00:07:58.360000
dup_frames=0
drop_frames=0
speed=1.16x
progress=continue
frame=12092 fps= 29 q=23.0 size=  297984KiB time=00:08:03.72 bitrate=5046.5kbits/s speed=1.16x    
frame=12092
fps=28.94
stream_0_0_q=23.0
bitrate=5046.5kbits/s
total_size=305135664
out_time_us=483720000
out_time_ms=483720000
out_time=00:08:03.720000
dup_frames=0
drop_frames=0
speed=1.16x
progress=continue
frame=12204 fps= 29 q=23.0 size=  300544KiB time=00:08:08.20 bitrate=5043.1kbits/s speed=1.15x    
frame=12204
fps=28.86
stream_0_0_q=23.0
bitrate=5043.1kbits/s
total_size=307757104
out_time_us=488200000
out_time_ms=488200000
out_time=00:08:08.200000
dup_frames=0
drop_frames=0
speed=1.15x
progress=continue
frame=12360 fps= 29 q=23.0 size=  303616KiB time=00:08:14.44 bitrate=5030.4kbits/s speed=1.16x    
frame=12360
fps=28.89
stream_0_0_q=23.0
bitrate=5030.4kbits/s
total_size=310902832
out_time_us=494440000
out_time_ms=494440000
out_time=00:08:14.440000
dup_frames=0
drop_frames=0
speed=1.16x
progress=continue
frame=12491 fps= 29 q=23.0 size=  306688KiB time=00:08:19.64 bitrate=5028.4kbits/s speed=1.15x    
frame=12491
fps=28.86
stream_0_0_q=23.0
bitrate=5028.4kbits/s
total_size=314048560
out_time_us=499640000
out_time_ms=499640000
out_time=00:08:19.640000
dup_frames=0
drop_frames=0
speed=1.15x
progress=continue
frame=12696 fps= 29 q=23.0 size=  309504KiB time=00:08:27.84 bitrate=4992.6kbits/s speed=1.16x    
frame=12696
fps=28.99
stream_0_0_q=23.0
bitrate=4992.6kbits/s
total_size=316932144
out_time_us=507840000
out_time_ms=507840000
out_time=00:08:27.840000
dup_frames=0
drop_frames=0
speed=1.16x
progress=continue
frame=12821 fps= 29 q=23.0 size=  312576KiB time=00:08:32.84 bitrate=4993.0kbits/s speed=1.16x    
frame=12821
fps=28.94
stream_0_0_q=23.0
bitrate=4993.0kbits/s
total_size=320077872
out_time_us=512840000
out_time_ms=512840000
out_time=00:08:32.840000
dup_frames=0
drop_frames=0
speed=1.16x
progress=continue
frame=12962 fps= 29 q=23.0 size=  315648KiB time=00:08:38.52 bitrate=4986.9kbits/s speed=1.16x    
frame=12962
fps=28.93
stream_0_0_q=23.0
bitrate=4986.9kbits/s
total_size=323223600
out_time_us=518520000
out_time_ms=518520000
out_time=00:08:38.520000
dup_frames=0
drop_frames=0
speed=1.16x
progress=continue
frame=13108 fps= 29 q=23.0 size=  318976KiB time=00:08:44.36 bitrate=4983.3kbits/s speed=1.16x    
frame=13108
fps=28.93
stream_0_0_q=23.0
bitrate=4983.3kbits/s
total_size=326631472
out_time_us=524360000
out_time_ms=524360000
out_time=00:08:44.360000
dup_frames=0
drop_frames=0
speed=1.16x
progress=continue
frame=13273 fps= 29 q=23.0 size=  321792KiB time=00:08:50.96 bitrate=4964.8kbits/s speed=1.16x    
frame=13273
fps=28.97
stream_0_0_q=23.0
bitrate=4964.8kbits/s
total_size=329515056
out_time_us=530960000
out_time_ms=530960000
out_time=00:08:50.960000
dup_frames=0
drop_frames=0
speed=1.16x
progress=continue
frame=13433 fps= 29 q=23.0 size=  324608KiB time=00:08:57.24 bitrate=4949.7kbits/s speed=1.16x    
frame=13433
fps=29.00
stream_0_0_q=23.0
bitrate=4949.7kbits/s
total_size=332398640
out_time_us=537240000
out_time_ms=537240000
out_time=00:08:57.240000
dup_frames=0
drop_frames=0
speed=1.16x
progress=continue
frame=13613 fps= 29 q=23.0 size=  327424KiB time=00:09:04.56 bitrate=4925.6kbits/s speed=1.16x    
frame=13613
fps=29.08
stream_0_0_q=23.0
bitrate=4925.6kbits/s
total_size=335282224
out_time_us=544560000
out_time_ms=544560000
out_time=00:09:04.560000
dup_frames=0
drop_frames=0
speed=1.16x
progress=continue
frame=13753 fps= 29 q=23.0 size=  330240KiB time=00:09:10.16 bitrate=4917.3kbits/s speed=1.16x    
frame=13753
fps=29.06
stream_0_0_q=23.0
bitrate=4917.3kbits/s
total_size=338165808
out_time_us=550160000
out_time_ms=550160000
out_time=00:09:10.160000
dup_frames=0
drop_frames=0
speed=1.16x
progress=continue
frame=13928 fps= 29 q=23.0 size=  333056KiB time=00:09:17.16 bitrate=4897.0kbits/s speed=1.17x    
frame=13928
fps=29.12
stream_0_0_q=23.0
bitrate=4897.0kbits/s
total_size=341049392
out_time_us=557160000
out_time_ms=557160000
out_time=00:09:17.160000
dup_frames=0
drop_frames=0
speed=1.17x
progress=continue
frame=14172 fps= 29 q=23.0 size=  336384KiB time=00:09:26.84 bitrate=4861.4kbits/s speed=1.17x    
frame=14172
fps=29.33
stream_0_0_q=23.0
bitrate=4861.4kbits/s
total_size=344457264
out_time_us=566840000
out_time_ms=566840000
out_time=00:09:26.840000
dup_frames=0
drop_frames=0
speed=1.17x
progress=continue
frame=14315 fps= 29 q=20.0 size=  339456KiB time=00:09:32.60 bitrate=4856.5kbits/s speed=1.17x    
frame=14315
fps=29.32
stream_0_0_q=20.0
bitrate=4856.5kbits/s
total_size=347602992
out_time_us=572600000
out_time_ms=572600000
out_time=00:09:32.600000
dup_frames=0
drop_frames=0
speed=1.17x
progress=continue
frame=14494 fps= 29 q=23.0 size=  342784KiB time=00:09:39.80 bitrate=4843.2kbits/s speed=1.18x    
frame=14494
fps=29.38
stream_0_0_q=23.0
bitrate=4843.2kbits/s
total_size=351010864
out_time_us=579800000
out_time_ms=579800000
out_time=00:09:39.800000
dup_frames=0
drop_frames=0
speed=1.18x
progress=continue
frame=14646 fps= 29 q=23.0 size=  345600KiB time=00:09:45.88 bitrate=4832.3kbits/s speed=1.18x    
frame=14646
fps=29.39
stream_0_0_q=23.0
bitrate=4832.3kbits/s
total_size=353894448
out_time_us=585880000
out_time_ms=585880000
out_time=00:09:45.880000
dup_frames=0
drop_frames=0
speed=1.18x
progress=continue
frame=14814 fps= 29 q=23.0 size=  348928KiB time=00:09:52.60 bitrate=4823.5kbits/s speed=1.18x    
frame=14814
fps=29.43
stream_0_0_q=23.0
bitrate=4823.5kbits/s
total_size=357302320
out_time_us=592600000
out_time_ms=592600000
out_time=00:09:52.600000
dup_frames=0
drop_frames=0
speed=1.18x
progress=continue
frame=15008 fps= 30 q=23.0 size=  352000KiB time=00:10:00.32 bitrate=4803.4kbits/s speed=1.18x    
frame=15008
fps=29.52
stream_0_0_q=23.0
bitrate=4803.4kbits/s
total_size=360448048
out_time_us=600320000
out_time_ms=600320000
out_time=00:10:00.320000
dup_frames=0
drop_frames=0
speed=1.18x
progress=continue
frame=15147 fps= 30 q=23.0 size=  355072KiB time=00:10:05.92 bitrate=4800.6kbits/s speed=1.18x    
frame=15147
fps=29.50
stream_0_0_q=23.0
bitrate=4800.6kbits/s
total_size=363593776
out_time_us=605920000
out_time_ms=605920000
out_time=00:10:05.920000
dup_frames=0
drop_frames=0
speed=1.18x
progress=continue
frame=15284 fps= 29 q=23.0 size=  358144KiB time=00:10:11.36 bitrate=4799.0kbits/s speed=1.18x    
frame=15284
fps=29.48
stream_0_0_q=23.0
bitrate=4799.0kbits/s
total_size=366739504
out_time_us=611360000
out_time_ms=611360000
out_time=00:10:11.360000
dup_frames=0
drop_frames=0
speed=1.18x
progress=continue
frame=15441 fps= 29 q=23.0 size=  361216KiB time=00:10:17.68 bitrate=4790.6kbits/s speed=1.18x    
frame=15441
fps=29.49
stream_0_0_q=23.0
bitrate=4790.6kbits/s
total_size=369885232
out_time_us=617680000
out_time_ms=617680000
out_time=00:10:17.680000
dup_frames=0
drop_frames=0
speed=1.18x
progress=continue
frame=15610 fps= 30 q=23.0 size=  364032KiB time=00:10:24.44 bitrate=4775.7kbits/s speed=1.18x    
frame=15610
fps=29.53
stream_0_0_q=23.0
bitrate=4775.7kbits/s
total_size=372768816
out_time_us=624440000
out_time_ms=624440000
out_time=00:10:24.440000
dup_frames=0
drop_frames=0
speed=1.18x
progress=continue
frame=15717 fps= 29 q=23.0 size=  367104KiB time=00:10:28.72 bitrate=4783.2kbits/s speed=1.18x    
frame=15717
fps=29.46
stream_0_0_q=23.0
bitrate=4783.2kbits/s
total_size=375914544
out_time_us=628720000
out_time_ms=628720000
out_time=00:10:28.720000
dup_frames=0
drop_frames=0
speed=1.18x
progress=continue
frame=15837 fps= 29 q=23.0 size=  370176KiB time=00:10:33.48 bitrate=4787.0kbits/s speed=1.18x    
frame=15837
fps=29.40
stream_0_0_q=23.0
bitrate=4787.0kbits/s
total_size=379060272
out_time_us=633480000
out_time_ms=633480000
out_time=00:10:33.480000
dup_frames=0
drop_frames=0
speed=1.18x
progress=continue
frame=15939 fps= 29 q=23.0 size=  375040KiB time=00:10:37.60 bitrate=4818.6kbits/s speed=1.17x    
frame=15939
fps=29.32
stream_0_0_q=23.0
bitrate=4818.6kbits/s
total_size=384041008
out_time_us=637600000
out_time_ms=637600000
out_time=00:10:37.600000
dup_frames=0
drop_frames=0
speed=1.17x
progress=continue
frame=16079 fps= 29 q=23.0 size=  378880KiB time=00:10:43.20 bitrate=4825.5kbits/s speed=1.17x    
frame=16079
fps=29.30
stream_0_0_q=23.0
bitrate=4825.5kbits/s
total_size=387973168
out_time_us=643200000
out_time_ms=643200000
out_time=00:10:43.200000
dup_frames=0
drop_frames=0
speed=1.17x
progress=continue
frame=16221 fps= 29 q=23.0 size=  382464KiB time=00:10:48.84 bitrate=4828.8kbits/s speed=1.17x    
frame=16221
fps=29.29
stream_0_0_q=23.0
bitrate=4828.8kbits/s
total_size=391643184
out_time_us=648840000
out_time_ms=648840000
out_time=00:10:48.840000
dup_frames=0
drop_frames=0
speed=1.17x
progress=continue
frame=16381 fps= 29 q=23.0 size=  387072KiB time=00:10:55.24 bitrate=4839.3kbits/s speed=1.17x    
frame=16381
fps=29.31
stream_0_0_q=23.0
bitrate=4839.3kbits/s
total_size=396361776
out_time_us=655240000
out_time_ms=655240000
out_time=00:10:55.240000
dup_frames=0
drop_frames=0
speed=1.17x
progress=continue
frame=16521 fps= 29 q=23.0 size=  391424KiB time=00:11:00.80 bitrate=4852.5kbits/s speed=1.17x    
frame=16521
fps=29.30
stream_0_0_q=23.0
bitrate=4852.5kbits/s
total_size=400818224
out_time_us=660800000
out_time_ms=660800000
out_time=00:11:00.800000
dup_frames=0
drop_frames=0
speed=1.17x
progress=continue
frame=16672 fps= 29 q=23.0 size=  396288KiB time=00:11:06.76 bitrate=4868.9kbits/s speed=1.17x    
frame=16672
fps=29.31
stream_0_0_q=23.0
bitrate=4868.9kbits/s
total_size=405798960
out_time_us=666760000
out_time_ms=666760000
out_time=00:11:06.760000
dup_frames=0
drop_frames=0
speed=1.17x
progress=continue
frame=16835 fps= 29 q=23.0 size=  400128KiB time=00:11:13.40 bitrate=4867.6kbits/s speed=1.17x    
frame=16835
fps=29.33
stream_0_0_q=23.0
bitrate=4867.6kbits/s
total_size=409731120
out_time_us=673400000
out_time_ms=673400000
out_time=00:11:13.400000
dup_frames=0
drop_frames=0
speed=1.17x
progress=continue
frame=17033 fps= 29 q=23.0 size=  404480KiB time=00:11:21.36 bitrate=4863.1kbits/s speed=1.18x    
frame=17033
fps=29.42
stream_0_0_q=23.0
bitrate=4863.1kbits/s
total_size=414187568
out_time_us=681360000
out_time_ms=681360000
out_time=00:11:21.360000
dup_frames=0
drop_frames=0
speed=1.18x
progress=continue
frame=17228 fps= 29 q=23.0 size=  408576KiB time=00:11:29.16 bitrate=4856.7kbits/s speed=1.18x    
frame=17228
fps=29.50
stream_0_0_q=23.0
bitrate=4856.7kbits/s
total_size=418381872
out_time_us=689160000
out_time_ms=689160000
out_time=00:11:29.160000
dup_frames=0
drop_frames=0
speed=1.18x
progress=continue
frame=17418 fps= 30 q=23.0 size=  412416KiB time=00:11:36.76 bitrate=4848.9kbits/s speed=1.18x    
frame=17418
fps=29.57
stream_0_0_q=23.0
bitrate=4848.9kbits/s
total_size=422314032
out_time_us=696760000
out_time_ms=696760000
out_time=00:11:36.760000
dup_frames=0
drop_frames=0
speed=1.18x
progress=continue
frame=17565 fps= 30 q=20.0 size=  415744KiB time=00:11:42.64 bitrate=4847.1kbits/s speed=1.18x    
frame=17565
fps=29.57
stream_0_0_q=20.0
bitrate=4847.1kbits/s
total_size=425721904
out_time_us=702640000
out_time_ms=702640000
out_time=00:11:42.640000
dup_frames=0
drop_frames=0
speed=1.18x
progress=continue
frame=17721 fps= 30 q=23.0 size=  421632KiB time=00:11:48.88 bitrate=4872.5kbits/s speed=1.18x    
frame=17721
fps=29.58
stream_0_0_q=23.0
bitrate=4872.5kbits/s
total_size=431751216
out_time_us=708880000
out_time_ms=708880000
out_time=00:11:48.880000
dup_frames=0
drop_frames=0
speed=1.18x
progress=continue
frame=17845 fps= 30 q=23.0 size=  427520KiB time=00:11:53.84 bitrate=4906.2kbits/s speed=1.18x    
frame=17845
fps=29.54
stream_0_0_q=23.0
bitrate=4906.2kbits/s
total_size=437780528
out_time_us=713840000
out_time_ms=713840000
out_time=00:11:53.840000
dup_frames=0
drop_frames=0
speed=1.18x
progress=continue
frame=18010 fps= 30 q=23.0 size=  431872KiB time=00:12:00.28 bitrate=4911.8kbits/s speed=1.18x    
frame=18010
fps=29.57
stream_0_0_q=23.0
bitrate=4911.8kbits/s
total_size=442236976
out_time_us=720280000
out_time_ms=720280000
out_time=00:12:00.280000
dup_frames=0
drop_frames=0
speed=1.18x
progress=continue
frame=18142 fps= 30 q=23.0 size=  434944KiB time=00:12:05.68 bitrate=4910.0kbits/s speed=1.18x    
frame=18142
fps=29.54
stream_0_0_q=23.0
bitrate=4910.0kbits/s
total_size=445382704
out_time_us=725680000
out_time_ms=725680000
out_time=00:12:05.680000
dup_frames=0
drop_frames=0
speed=1.18x
progress=continue
frame=18282 fps= 30 q=23.0 size=  438528KiB time=00:12:11.32 bitrate=4912.2kbits/s speed=1.18x    
frame=18282
fps=29.52
stream_0_0_q=23.0
bitrate=4912.2kbits/s
total_size=449052720
out_time_us=731320000
out_time_ms=731320000
out_time=00:12:11.320000
dup_frames=0
drop_frames=0
speed=1.18x
progress=continue
frame=18432 fps= 30 q=23.0 size=  441856KiB time=00:12:17.32 bitrate=4909.2kbits/s speed=1.18x    
frame=18432
fps=29.52
stream_0_0_q=23.0
bitrate=4909.2kbits/s
total_size=452460592
out_time_us=737320000
out_time_ms=737320000
out_time=00:12:17.320000
dup_frames=0
drop_frames=0
speed=1.18x
progress=continue
frame=18572 fps= 30 q=23.0 size=  444672KiB time=00:12:22.92 bitrate=4903.3kbits/s speed=1.18x    
frame=18572
fps=29.51
stream_0_0_q=23.0
bitrate=4903.3kbits/s
total_size=455344176
out_time_us=742920000
out_time_ms=742920000
out_time=00:12:22.920000
dup_frames=0
drop_frames=0
speed=1.18x
progress=continue
frame=18684 fps= 29 q=23.0 size=  448512KiB time=00:12:27.40 bitrate=4916.0kbits/s speed=1.18x    
frame=18684
fps=29.45
stream_0_0_q=23.0
bitrate=4916.0kbits/s
total_size=459276336
out_time_us=747400000
out_time_ms=747400000
out_time=00:12:27.400000
dup_frames=0
drop_frames=0
speed=1.18x
progress=continue
frame=18818 fps= 29 q=23.0 size=  452096KiB time=00:12:32.72 bitrate=4920.3kbits/s speed=1.18x    
frame=18818
fps=29.43
stream_0_0_q=23.0
bitrate=4920.3kbits/s
total_size=462946352
out_time_us=752720000
out_time_ms=752720000
out_time=00:12:32.720000
dup_frames=0
drop_frames=0
speed=1.18x
progress=continue
frame=18966 fps= 29 q=23.0 size=  456448KiB time=00:12:38.56 bitrate=4929.4kbits/s speed=1.18x    
frame=18966
fps=29.43
stream_0_0_q=23.0
bitrate=4929.4kbits/s
total_size=467402800
out_time_us=758560000
out_time_ms=758560000
out_time=00:12:38.560000
dup_frames=0
drop_frames=0
speed=1.18x
progress=continue
frame=19109 fps= 29 q=23.0 size=  460544KiB time=00:12:44.40 bitrate=4935.6kbits/s speed=1.18x    
frame=19109
fps=29.42
stream_0_0_q=23.0
bitrate=4935.6kbits/s
total_size=471597104
out_time_us=764400000
out_time_ms=764400000
out_time=00:12:44.400000
dup_frames=0
drop_frames=0
speed=1.18x
progress=continue
frame=19258 fps= 29 q=23.0 size=  463872KiB time=00:12:50.36 bitrate=4932.8kbits/s speed=1.18x    
frame=19258
fps=29.42
stream_0_0_q=23.0
bitrate=4932.8kbits/s
total_size=475004976
out_time_us=770360000
out_time_ms=770360000
out_time=00:12:50.360000
dup_frames=0
drop_frames=0
speed=1.18x
progress=continue
frame=19403 fps= 29 q=23.0 size=  467200KiB time=00:12:56.16 bitrate=4931.1kbits/s speed=1.18x    
frame=19403
fps=29.42
stream_0_0_q=23.0
bitrate=4931.1kbits/s
total_size=478412848
out_time_us=776160000
out_time_ms=776160000
out_time=00:12:56.160000
dup_frames=0
drop_frames=0
speed=1.18x
progress=continue
frame=19554 fps= 29 q=23.0 size=  470528KiB time=00:13:02.20 bitrate=4927.9kbits/s speed=1.18x    
frame=19554
fps=29.42
stream_0_0_q=23.0
bitrate=4927.9kbits/s
total_size=481820720
out_time_us=782200000
out_time_ms=782200000
out_time=00:13:02.200000
dup_frames=0
drop_frames=0
speed=1.18x
progress=continue
frame=19693 fps= 29 q=23.0 size=  473856KiB time=00:13:07.72 bitrate=4927.9kbits/s speed=1.18x    
frame=19693
fps=29.41
stream_0_0_q=23.0
bitrate=4927.9kbits/s
total_size=485228592
out_time_us=787720000
out_time_ms=787720000
out_time=00:13:07.720000
dup_frames=0
drop_frames=0
speed=1.18x
progress=continue
frame=19842 fps= 29 q=23.0 size=  476928KiB time=00:13:13.56 bitrate=4923.4kbits/s speed=1.18x    
frame=19842
fps=29.41
stream_0_0_q=23.0
bitrate=4923.4kbits/s
total_size=488374320
out_time_us=793560000
out_time_ms=793560000
out_time=00:13:13.560000
dup_frames=0
drop_frames=0
speed=1.18x
progress=continue
frame=19992 fps= 29 q=23.0 size=  480000KiB time=00:13:19.72 bitrate=4916.9kbits/s speed=1.18x    
frame=19992
fps=29.41
stream_0_0_q=23.0
bitrate=4916.9kbits/s
total_size=491520048
out_time_us=799720000
out_time_ms=799720000
out_time=00:13:19.720000
dup_frames=0
drop_frames=0
speed=1.18x
progress=continue
frame=20135 fps= 29 q=23.0 size=  483840KiB time=00:13:25.40 bitrate=4921.3kbits/s speed=1.18x    
frame=20135
fps=29.40
stream_0_0_q=23.0
bitrate=4921.3kbits/s
total_size=495452208
out_time_us=805400000
out_time_ms=805400000
out_time=00:13:25.400000
dup_frames=0
drop_frames=0
speed=1.18x
progress=continue
frame=20280 fps= 29 q=23.0 size=  488192KiB time=00:13:31.24 bitrate=4929.8kbits/s speed=1.18x    
frame=20280
fps=29.40
stream_0_0_q=23.0
bitrate=4929.8kbits/s
total_size=499908656
out_time_us=811240000
out_time_ms=811240000
out_time=00:13:31.240000
dup_frames=0
drop_frames=0
speed=1.18x
progress=continue
frame=20423 fps= 29 q=23.0 size=  491776KiB time=00:13:36.96 bitrate=4931.2kbits/s speed=1.18x    
frame=20423
fps=29.39
stream_0_0_q=23.0
bitrate=4931.2kbits/s
total_size=503578672
out_time_us=816960000
out_time_ms=816960000
out_time=00:13:36.960000
dup_frames=0
drop_frames=0
speed=1.18x
progress=continue
frame=20588 fps= 29 q=23.0 size=  495360KiB time=00:13:43.56 bitrate=4927.4kbits/s speed=1.18x    
frame=20588
fps=29.41
stream_0_0_q=23.0
bitrate=4927.4kbits/s
total_size=507248688
out_time_us=823560000
out_time_ms=823560000
out_time=00:13:43.560000
dup_frames=0
drop_frames=0
speed=1.18x
progress=continue
frame=20737 fps= 29 q=23.0 size=  498432KiB time=00:13:49.52 bitrate=4922.3kbits/s speed=1.18x    
frame=20737
fps=29.42
stream_0_0_q=23.0
bitrate=4922.3kbits/s
total_size=510394416
out_time_us=829520000
out_time_ms=829520000
out_time=00:13:49.520000
dup_frames=0
drop_frames=0
speed=1.18x
progress=continue
frame=20892 fps= 29 q=23.0 size=  502016KiB time=00:13:55.72 bitrate=4920.9kbits/s speed=1.18x    
frame=20892
fps=29.42
stream_0_0_q=23.0
bitrate=4920.9kbits/s
total_size=514064432
out_time_us=835720000
out_time_ms=835720000
out_time=00:13:55.720000
dup_frames=0
drop_frames=0
speed=1.18x
progress=continue
frame=21041 fps= 29 q=23.0 size=  505856KiB time=00:14:01.68 bitrate=4923.5kbits/s speed=1.18x    
frame=21041
fps=29.42
stream_0_0_q=23.0
bitrate=4923.5kbits/s
total_size=517996592
out_time_us=841680000
out_time_ms=841680000
out_time=00:14:01.680000
dup_frames=0
drop_frames=0
speed=1.18x
progress=continue
frame=21182 fps= 29 q=23.0 size=  509952KiB time=00:14:07.24 bitrate=4930.7kbits/s speed=1.18x    
frame=21182
fps=29.41
stream_0_0_q=23.0
bitrate=4930.7kbits/s
total_size=522190896
out_time_us=847240000
out_time_ms=847240000
out_time=00:14:07.240000
dup_frames=0
drop_frames=0
speed=1.18x
progress=continue
frame=21321 fps= 29 q=23.0 size=  514048KiB time=00:14:12.88 bitrate=4937.5kbits/s speed=1.18x    
frame=21321
fps=29.40
stream_0_0_q=23.0
bitrate=4937.5kbits/s
total_size=526385200
out_time_us=852880000
out_time_ms=852880000
out_time=00:14:12.880000
dup_frames=0
drop_frames=0
speed=1.18x
progress=continue
frame=21496 fps= 29 q=23.0 size=  518656KiB time=00:14:19.80 bitrate=4941.6kbits/s speed=1.18x    
frame=21496
fps=29.44
stream_0_0_q=23.0
bitrate=4941.6kbits/s
total_size=531103792
out_time_us=859800000
out_time_ms=859800000
out_time=00:14:19.800000
dup_frames=0
drop_frames=0
speed=1.18x
progress=continue
frame=21633 fps= 29 q=23.0 size=  522240KiB time=00:14:25.36 bitrate=4943.8kbits/s speed=1.18x    
frame=21633
fps=29.42
stream_0_0_q=23.0
bitrate=4943.8kbits/s
total_size=534773808
out_time_us=865360000
out_time_ms=865360000
out_time=00:14:25.360000
dup_frames=0
drop_frames=0
speed=1.18x
progress=continue
frame=21772 fps= 29 q=23.0 size=  525568KiB time=00:14:30.92 bitrate=4943.6kbits/s speed=1.18x    
frame=21772
fps=29.41
stream_0_0_q=23.0
bitrate=4943.6kbits/s
total_size=538181680
out_time_us=870920000
out_time_ms=870920000
out_time=00:14:30.920000
dup_frames=0
drop_frames=0
speed=1.18x
progress=continue
frame=21931 fps= 29 q=23.0 size=  528640KiB time=00:14:37.24 bitrate=4936.6kbits/s speed=1.18x    
frame=21931
fps=29.42
stream_0_0_q=23.0
bitrate=4936.6kbits/s
total_size=541327408
out_time_us=877240000
out_time_ms=877240000
out_time=00:14:37.240000
dup_frames=0
drop_frames=0
speed=1.18x
progress=continue
frame=22055 fps= 29 q=23.0 size=  531968KiB time=00:14:42.24 bitrate=4939.6kbits/s speed=1.18x    
frame=22055
fps=29.39
stream_0_0_q=23.0
bitrate=4939.6kbits/s
total_size=544735280
out_time_us=882240000
out_time_ms=882240000
out_time=00:14:42.240000
dup_frames=0
drop_frames=0
speed=1.18x
progress=continue
frame=22197 fps= 29 q=23.0 size=  535808KiB time=00:14:47.92 bitrate=4943.4kbits/s speed=1.18x    
frame=22197
fps=29.38
stream_0_0_q=23.0
bitrate=4943.4kbits/s
total_size=548667440
out_time_us=887920000
out_time_ms=887920000
out_time=00:14:47.920000
dup_frames=0
drop_frames=0
speed=1.18x
progress=continue
frame=22342 fps= 29 q=23.0 size=  539392KiB time=00:14:53.72 bitrate=4944.2kbits/s speed=1.18x    
frame=22342
fps=29.38
stream_0_0_q=23.0
bitrate=4944.2kbits/s
total_size=552337456
out_time_us=893720000
out_time_ms=893720000
out_time=00:14:53.720000
dup_frames=0
drop_frames=0
speed=1.18x
progress=continue
frame=22492 fps= 29 q=23.0 size=  542720KiB time=00:14:59.68 bitrate=4941.7kbits/s speed=1.18x    
frame=22492
fps=29.38
stream_0_0_q=23.0
bitrate=4941.7kbits/s
total_size=555745328
out_time_us=899680000
out_time_ms=899680000
out_time=00:14:59.680000
dup_frames=0
drop_frames=0
speed=1.18x
progress=continue
frame=22658 fps= 29 q=23.0 size=  547072KiB time=00:15:06.36 bitrate=4944.6kbits/s speed=1.18x    
frame=22658
fps=29.40
stream_0_0_q=23.0
bitrate=4944.6kbits/s
total_size=560201776
out_time_us=906360000
out_time_ms=906360000
out_time=00:15:06.360000
dup_frames=0
drop_frames=0
speed=1.18x
progress=continue
frame=22817 fps= 29 q=23.0 size=  550400KiB time=00:15:12.64 bitrate=4940.5kbits/s speed=1.18x    
frame=22817
fps=29.42
stream_0_0_q=23.0
bitrate=4940.5kbits/s
total_size=563609648
out_time_us=912640000
out_time_ms=912640000
out_time=00:15:12.640000
dup_frames=0
drop_frames=0
speed=1.18x
progress=continue
frame=22968 fps= 29 q=23.0 size=  554496KiB time=00:15:18.76 bitrate=4944.1kbits/s speed=1.18x    
frame=22968
fps=29.42
stream_0_0_q=23.0
bitrate=4944.1kbits/s
total_size=567803952
out_time_us=918760000
out_time_ms=918760000
out_time=00:15:18.760000
dup_frames=0
drop_frames=0
speed=1.18x
progress=continue
frame=23114 fps= 29 q=23.0 size=  558080KiB time=00:15:24.56 bitrate=4944.8kbits/s speed=1.18x    
frame=23114
fps=29.42
stream_0_0_q=23.0
bitrate=4944.8kbits/s
total_size=571473968
out_time_us=924560000
out_time_ms=924560000
out_time=00:15:24.560000
dup_frames=0
drop_frames=0
speed=1.18x
progress=continue
frame=23277 fps= 29 q=23.0 size=  561408KiB time=00:15:31.12 bitrate=4939.3kbits/s speed=1.18x    
frame=23277
fps=29.44
stream_0_0_q=23.0
bitrate=4939.3kbits/s
total_size=574881840
out_time_us=931120000
out_time_ms=931120000
out_time=00:15:31.120000
dup_frames=0
drop_frames=0
speed=1.18x
progress=continue
frame=23428 fps= 29 q=23.0 size=  564736KiB time=00:15:37.00 bitrate=4937.4kbits/s speed=1.18x    
frame=23428
fps=29.44
stream_0_0_q=23.0
bitrate=4937.4kbits/s
total_size=578289712
out_time_us=937000000
out_time_ms=937000000
out_time=00:15:37.000000
dup_frames=0
drop_frames=0
speed=1.18x
progress=continue
frame=23572 fps= 29 q=23.0 size=  568576KiB time=00:15:42.84 bitrate=4940.2kbits/s speed=1.18x    
frame=23572
fps=29.43
stream_0_0_q=23.0
bitrate=4940.2kbits/s
total_size=582221872
out_time_us=942840000
out_time_ms=942840000
out_time=00:15:42.840000
dup_frames=0
drop_frames=0
speed=1.18x
progress=continue
frame=23705 fps= 29 q=23.0 size=  572416KiB time=00:15:48.24 bitrate=4945.2kbits/s speed=1.18x    
frame=23705
fps=29.41
stream_0_0_q=23.0
bitrate=4945.2kbits/s
total_size=586154032
out_time_us=948240000
out_time_ms=948240000
out_time=00:15:48.240000
dup_frames=0
drop_frames=0
speed=1.18x
progress=continue
frame=23834 fps= 29 q=23.0 size=  575744KiB time=00:15:53.36 bitrate=4947.2kbits/s speed=1.18x    
frame=23834
fps=29.39
stream_0_0_q=23.0
bitrate=4947.2kbits/s
total_size=589561904
out_time_us=953360000
out_time_ms=953360000
out_time=00:15:53.360000
dup_frames=0
drop_frames=0
speed=1.18x
progress=continue
frame=23971 fps= 29 q=23.0 size=  579584KiB time=00:15:58.88 bitrate=4951.6kbits/s speed=1.18x    
frame=23971
fps=29.37
stream_0_0_q=23.0
bitrate=4951.6kbits/s
total_size=593494064
out_time_us=958880000
out_time_ms=958880000
out_time=00:15:58.880000
dup_frames=0
drop_frames=0
speed=1.18x
progress=continue
frame=24094 fps= 29 q=23.0 size=  582912KiB time=00:16:03.80 bitrate=4954.6kbits/s speed=1.17x    
frame=24094
fps=29.35
stream_0_0_q=23.0
bitrate=4954.6kbits/s
total_size=596901936
out_time_us=963800000
out_time_ms=963800000
out_time=00:16:03.800000
dup_frames=0
drop_frames=0
speed=1.17x
progress=continue
frame=24257 fps= 29 q=23.0 size=  587520KiB time=00:16:10.32 bitrate=4960.2kbits/s speed=1.17x    
frame=24257
fps=29.36
stream_0_0_q=23.0
bitrate=4960.2kbits/s
total_size=601620528
out_time_us=970320000
out_time_ms=970320000
out_time=00:16:10.320000
dup_frames=0
drop_frames=0
speed=1.17x
progress=continue
frame=24419 fps= 29 q=23.0 size=  591360KiB time=00:16:16.68 bitrate=4960.1kbits/s speed=1.18x    
frame=24419
fps=29.38
stream_0_0_q=23.0
bitrate=4960.1kbits/s
total_size=605552688
out_time_us=976680000
out_time_ms=976680000
out_time=00:16:16.680000
dup_frames=0
drop_frames=0
speed=1.18x
progress=continue
frame=24566 fps= 29 q=23.0 size=  594432KiB time=00:16:22.68 bitrate=4955.4kbits/s speed=1.18x    
frame=24566
fps=29.38
stream_0_0_q=23.0
bitrate=4955.4kbits/s
total_size=608698416
out_time_us=982680000
out_time_ms=982680000
out_time=00:16:22.680000
dup_frames=0
drop_frames=0
speed=1.18x
progress=continue
frame=24712 fps= 29 q=23.0 size=  598016KiB time=00:16:28.52 bitrate=4955.8kbits/s speed=1.18x    
frame=24712
fps=29.38
stream_0_0_q=23.0
bitrate=4955.8kbits/s
total_size=612368432
out_time_us=988520000
out_time_ms=988520000
out_time=00:16:28.520000
dup_frames=0
drop_frames=0
speed=1.18x
progress=continue
frame=24854 fps= 29 q=23.0 size=  601600KiB time=00:16:34.20 bitrate=4957.1kbits/s speed=1.17x    
frame=24854
fps=29.37
stream_0_0_q=23.0
bitrate=4957.1kbits/s
total_size=616038448
out_time_us=994200000
out_time_ms=994200000
out_time=00:16:34.200000
dup_frames=0
drop_frames=0
speed=1.17x
progress=continue
frame=25019 fps= 29 q=23.0 size=  605440KiB time=00:16:40.80 bitrate=4955.8kbits/s speed=1.18x    
frame=25019
fps=29.39
stream_0_0_q=23.0
bitrate=4955.8kbits/s
total_size=619970608
out_time_us=1000800000
out_time_ms=1000800000
out_time=00:16:40.800000
dup_frames=0
drop_frames=0
speed=1.18x
progress=continue
frame=25137 fps= 29 q=23.0 size=  609536KiB time=00:16:45.52 bitrate=4965.9kbits/s speed=1.17x    
frame=25137
fps=29.36
stream_0_0_q=23.0
bitrate=4965.9kbits/s
total_size=624164912
out_time_us=1005520000
out_time_ms=1005520000
out_time=00:16:45.520000
dup_frames=0
drop_frames=0
speed=1.17x
progress=continue
frame=25255 fps= 29 q=23.0 size=  614144KiB time=00:16:50.20 bitrate=4980.3kbits/s speed=1.17x    
frame=25255
fps=29.32
stream_0_0_q=23.0
bitrate=4980.3kbits/s
total_size=628883504
out_time_us=1010200000
out_time_ms=1010200000
out_time=00:16:50.200000
dup_frames=0
drop_frames=0
speed=1.17x
progress=continue
frame=25370 fps= 29 q=23.0 size=  618240KiB time=00:16:54.84 bitrate=4990.6kbits/s speed=1.17x    
frame=25370
fps=29.28
stream_0_0_q=23.0
bitrate=4990.6kbits/s
total_size=633077808
out_time_us=1014840000
out_time_ms=1014840000
out_time=00:16:54.840000
dup_frames=0
drop_frames=0
speed=1.17x
progress=continue
frame=25488 fps= 29 q=23.0 size=  621824KiB time=00:16:59.56 bitrate=4996.3kbits/s speed=1.17x    
frame=25488
fps=29.25
stream_0_0_q=23.0
bitrate=4996.3kbits/s
total_size=636747824
out_time_us=1019560000
out_time_ms=1019560000
out_time=00:16:59.560000
dup_frames=0
drop_frames=0
speed=1.17x
progress=continue
frame=25604 fps= 29 q=23.0 size=  625920KiB time=00:17:04.20 bitrate=5006.4kbits/s speed=1.17x    
frame=25604
fps=29.21
stream_0_0_q=23.0
bitrate=5006.4kbits/s
total_size=640942128
out_time_us=1024200000
out_time_ms=1024200000
out_time=00:17:04.200000
dup_frames=0
drop_frames=0
speed=1.17x
progress=continue
frame=25715 fps= 29 q=20.0 size=  629760KiB time=00:17:08.60 bitrate=5015.5kbits/s speed=1.17x    
frame=25715
fps=29.17
stream_0_0_q=20.0
bitrate=5015.5kbits/s
total_size=644874288
out_time_us=1028600000
out_time_ms=1028600000
out_time=00:17:08.600000
dup_frames=0
drop_frames=0
speed=1.17x
progress=continue
frame=25834 fps= 29 q=23.0 size=  633088KiB time=00:17:13.36 bitrate=5018.8kbits/s speed=1.17x    
frame=25834
fps=29.14
stream_0_0_q=23.0
bitrate=5018.8kbits/s
total_size=648282160
out_time_us=1033360000
out_time_ms=1033360000
out_time=00:17:13.360000
dup_frames=0
drop_frames=0
speed=1.17x
progress=continue
frame=25957 fps= 29 q=23.0 size=  636672KiB time=00:17:18.32 bitrate=5023.1kbits/s speed=1.16x    
frame=25957
fps=29.11
stream_0_0_q=23.0
bitrate=5023.1kbits/s
total_size=651952176
out_time_us=1038320000
out_time_ms=1038320000
out_time=00:17:18.320000
dup_frames=0
drop_frames=0
speed=1.16x
progress=continue
frame=26085 fps= 29 q=23.0 size=  639744KiB time=00:17:23.44 bitrate=5022.6kbits/s speed=1.16x    
frame=26085
fps=29.09
stream_0_0_q=23.0
bitrate=5022.6kbits/s
total_size=655097904
out_time_us=1043440000
out_time_ms=1043440000
out_time=00:17:23.440000
dup_frames=0
drop_frames=0
speed=1.16x
progress=continue
frame=26207 fps= 29 q=23.0 size=  643072KiB time=00:17:28.32 bitrate=5025.2kbits/s speed=1.16x    
frame=26207
fps=29.06
stream_0_0_q=23.0
bitrate=5025.2kbits/s
total_size=658505776
out_time_us=1048320000
out_time_ms=1048320000
out_time=00:17:28.320000
dup_frames=0
drop_frames=0
speed=1.16x
progress=continue
frame=26336 fps= 29 q=23.0 size=  646400KiB time=00:17:33.48 bitrate=5026.5kbits/s speed=1.16x    
frame=26336
fps=29.05
stream_0_0_q=23.0
bitrate=5026.5kbits/s
total_size=661913648
out_time_us=1053480000
out_time_ms=1053480000
out_time=00:17:33.480000
dup_frames=0
drop_frames=0
speed=1.16x
progress=continue
frame=26459 fps= 29 q=23.0 size=  649472KiB time=00:17:38.40 bitrate=5026.9kbits/s speed=1.16x    
frame=26459
fps=29.02
stream_0_0_q=23.0
bitrate=5026.9kbits/s
total_size=665059376
out_time_us=1058400000
out_time_ms=1058400000
out_time=00:17:38.400000
dup_frames=0
drop_frames=0
speed=1.16x
progress=continue
frame=26578 fps= 29 q=23.0 size=  653824KiB time=00:17:43.16 bitrate=5037.9kbits/s speed=1.16x    
frame=26578
fps=28.99
stream_0_0_q=23.0
bitrate=5037.9kbits/s
total_size=669515824
out_time_us=1063160000
out_time_ms=1063160000
out_time=00:17:43.160000
dup_frames=0
drop_frames=0
speed=1.16x
progress=continue
frame=26690 fps= 29 q=20.0 size=  658944KiB time=00:17:47.64 bitrate=5056.1kbits/s speed=1.16x    
frame=26690
fps=28.96
stream_0_0_q=20.0
bitrate=5056.1kbits/s
total_size=674758704
out_time_us=1067640000
out_time_ms=1067640000
out_time=00:17:47.640000
dup_frames=0
drop_frames=0
speed=1.16x
progress=continue
frame=26832 fps= 29 q=23.0 size=  662528KiB time=00:17:53.32 bitrate=5056.7kbits/s speed=1.16x    
frame=26832
fps=28.95
stream_0_0_q=23.0
bitrate=5056.7kbits/s
total_size=678428720
out_time_us=1073320000
out_time_ms=1073320000
out_time=00:17:53.320000
dup_frames=0
drop_frames=0
speed=1.16x
progress=continue
frame=26981 fps= 29 q=23.0 size=  666112KiB time=00:17:59.28 bitrate=5056.0kbits/s speed=1.16x    
frame=26981
fps=28.96
stream_0_0_q=23.0
bitrate=5056.0kbits/s
total_size=682098736
out_time_us=1079280000
out_time_ms=1079280000
out_time=00:17:59.280000
dup_frames=0
drop_frames=0
speed=1.16x
progress=continue
frame=27109 fps= 29 q=23.0 size=  669440KiB time=00:18:04.40 bitrate=5057.2kbits/s speed=1.16x    
frame=27109
fps=28.94
stream_0_0_q=23.0
bitrate=5057.2kbits/s
total_size=685506608
out_time_us=1084400000
out_time_ms=1084400000
out_time=00:18:04.400000
dup_frames=0
drop_frames=0
speed=1.16x
progress=continue
frame=27237 fps= 29 q=23.0 size=  672512KiB time=00:18:09.48 bitrate=5056.7kbits/s speed=1.16x    
frame=27237
fps=28.92
stream_0_0_q=23.0
bitrate=5056.7kbits/s
total_size=688652336
out_time_us=1089480000
out_time_ms=1089480000
out_time=00:18:09.480000
dup_frames=0
drop_frames=0
speed=1.16x
progress=continue
frame=27356 fps= 29 q=23.0 size=  676608KiB time=00:18:14.28 bitrate=5065.2kbits/s speed=1.16x    
frame=27356
fps=28.89
stream_0_0_q=23.0
bitrate=5065.2kbits/s
total_size=692846640
out_time_us=1094280000
out_time_ms=1094280000
out_time=00:18:14.280000
dup_frames=0
drop_frames=0
speed=1.16x
progress=continue
frame=27499 fps= 29 q=23.0 size=  679680KiB time=00:18:20.00 bitrate=5061.8kbits/s speed=1.16x    
frame=27499
fps=28.89
stream_0_0_q=23.0
bitrate=5061.8kbits/s
total_size=695992368
out_time_us=1100000000
out_time_ms=1100000000
out_time=00:18:20.000000
dup_frames=0
drop_frames=0
speed=1.16x
progress=continue
frame=27645 fps= 29 q=23.0 size=  683520KiB time=00:18:25.80 bitrate=5063.7kbits/s speed=1.16x    
frame=27645
fps=28.89
stream_0_0_q=23.0
bitrate=5063.7kbits/s
total_size=699924528
out_time_us=1105800000
out_time_ms=1105800000
out_time=00:18:25.800000
dup_frames=0
drop_frames=0
speed=1.16x
progress=continue
frame=27793 fps= 29 q=23.0 size=  688640KiB time=00:18:31.72 bitrate=5074.4kbits/s speed=1.16x    
frame=27793
fps=28.89
stream_0_0_q=23.0
bitrate=5074.4kbits/s
total_size=705167408
out_time_us=1111720000
out_time_ms=1111720000
out_time=00:18:31.720000
dup_frames=0
drop_frames=0
speed=1.16x
progress=continue
frame=27911 fps= 29 q=23.0 size=  695296KiB time=00:18:36.48 bitrate=5101.6kbits/s speed=1.15x    
frame=27911
fps=28.86
stream_0_0_q=23.0
bitrate=5101.6kbits/s
total_size=711983152
out_time_us=1116480000
out_time_ms=1116480000
out_time=00:18:36.480000
dup_frames=0
drop_frames=0
speed=1.15x
progress=continue
frame=28032 fps= 29 q=23.0 size=  703744KiB time=00:18:41.32 bitrate=5141.3kbits/s speed=1.15x    
frame=28032
fps=28.84
stream_0_0_q=23.0
bitrate=5141.3kbits/s
total_size=720633904
out_time_us=1121320000
out_time_ms=1121320000
out_time=00:18:41.320000
dup_frames=0
drop_frames=0
speed=1.15x
progress=continue
frame=28143 fps= 29 q=23.0 size=  707584KiB time=00:18:45.76 bitrate=5149.0kbits/s speed=1.15x    
frame=28143
fps=28.80
stream_0_0_q=23.0
bitrate=5149.0kbits/s
total_size=724566064
out_time_us=1125760000
out_time_ms=1125760000
out_time=00:18:45.760000
dup_frames=0
drop_frames=0
speed=1.15x
progress=continue
frame=28248 fps= 29 q=23.0 size=  711936KiB time=00:18:49.88 bitrate=5161.8kbits/s speed=1.15x    
frame=28248
fps=28.76
stream_0_0_q=23.0
bitrate=5161.8kbits/s
total_size=729022512
out_time_us=1129880000
out_time_ms=1129880000
out_time=00:18:49.880000
dup_frames=0
drop_frames=0
speed=1.15x
progress=continue
frame=28362 fps= 29 q=23.0 size=  717056KiB time=00:18:54.52 bitrate=5177.6kbits/s speed=1.15x    
frame=28362
fps=28.73
stream_0_0_q=23.0
bitrate=5177.6kbits/s
total_size=734265392
out_time_us=1134520000
out_time_ms=1134520000
out_time=00:18:54.520000
dup_frames=0
drop_frames=0
speed=1.15x
progress=continue
frame=28478 fps= 29 q=23.0 size=  721408KiB time=00:18:59.16 bitrate=5187.8kbits/s speed=1.15x    
frame=28478
fps=28.70
stream_0_0_q=23.0
bitrate=5187.8kbits/s
total_size=738721840
out_time_us=1139160000
out_time_ms=1139160000
out_time=00:18:59.160000
dup_frames=0
drop_frames=0
speed=1.15x
progress=continue
frame=28592 fps= 29 q=23.0 size=  724992KiB time=00:19:03.64 bitrate=5193.2kbits/s speed=1.15x    
frame=28592
fps=28.67
stream_0_0_q=23.0
bitrate=5193.2kbits/s
total_size=742391856
out_time_us=1143640000
out_time_ms=1143640000
out_time=00:19:03.640000
dup_frames=0
drop_frames=0
speed=1.15x
progress=continue
frame=28715 fps= 29 q=20.0 size=  729088KiB time=00:19:08.64 bitrate=5199.8kbits/s speed=1.15x    
frame=28715
fps=28.65
stream_0_0_q=20.0
bitrate=5199.8kbits/s
total_size=746586160
out_time_us=1148640000
out_time_ms=1148640000
out_time=00:19:08.640000
dup_frames=0
drop_frames=0
speed=1.15x
progress=continue
frame=28829 fps= 29 q=23.0 size=  733440KiB time=00:19:13.16 bitrate=5210.3kbits/s speed=1.14x    
frame=28829
fps=28.62
stream_0_0_q=23.0
bitrate=5210.3kbits/s
total_size=751042608
out_time_us=1153160000
out_time_ms=1153160000
out_time=00:19:13.160000
dup_frames=0
drop_frames=0
speed=1.14x
progress=continue
frame=28956 fps= 29 q=23.0 size=  737536KiB time=00:19:18.28 bitrate=5216.3kbits/s speed=1.14x    
frame=28956
fps=28.60
stream_0_0_q=23.0
bitrate=5216.3kbits/s
total_size=755236912
out_time_us=1158280000
out_time_ms=1158280000
out_time=00:19:18.280000
dup_frames=0
drop_frames=0
speed=1.14x
progress=continue
frame=29111 fps= 29 q=23.0 size=  742912KiB time=00:19:24.48 bitrate=5226.3kbits/s speed=1.14x    
frame=29111
fps=28.61
stream_0_0_q=23.0
bitrate=5226.3kbits/s
total_size=760741936
out_time_us=1164480000
out_time_ms=1164480000
out_time=00:19:24.480000
dup_frames=0
drop_frames=0
speed=1.14x
progress=continue
frame=29233 fps= 29 q=23.0 size=  746752KiB time=00:19:29.36 bitrate=5231.4kbits/s speed=1.14x    
frame=29233
fps=28.59
stream_0_0_q=23.0
bitrate=5231.4kbits/s
total_size=764674096
out_time_us=1169360000
out_time_ms=1169360000
out_time=00:19:29.360000
dup_frames=0
drop_frames=0
speed=1.14x
progress=continue
frame=29342 fps= 29 q=23.0 size=  750592KiB time=00:19:33.72 bitrate=5238.8kbits/s speed=1.14x    
frame=29342
fps=28.56
stream_0_0_q=23.0
bitrate=5238.8kbits/s
total_size=768606256
out_time_us=1173720000
out_time_ms=1173720000
out_time=00:19:33.720000
dup_frames=0
drop_frames=0
speed=1.14x
progress=continue
frame=29456 fps= 29 q=23.0 size=  754176KiB time=00:19:38.28 bitrate=5243.4kbits/s speed=1.14x    
frame=29456
fps=28.53
stream_0_0_q=23.0
bitrate=5243.4kbits/s
total_size=772276272
out_time_us=1178280000
out_time_ms=1178280000
out_time=00:19:38.280000
dup_frames=0
drop_frames=0
speed=1.14x
progress=continue
frame=29572 fps= 29 q=23.0 size=  758016KiB time=00:19:42.92 bitrate=5249.4kbits/s speed=1.14x    
frame=29572
fps=28.50
stream_0_0_q=23.0
bitrate=5249.4kbits/s
total_size=776208432
out_time_us=1182920000
out_time_ms=1182920000
out_time=00:19:42.920000
dup_frames=0
drop_frames=0
speed=1.14x
progress=continue
frame=29704 fps= 28 q=23.0 size=  761856KiB time=00:19:48.20 bitrate=5252.6kbits/s speed=1.14x    
frame=29704
fps=28.49
stream_0_0_q=23.0
bitrate=5252.6kbits/s
total_size=780140592
out_time_us=1188200000
out_time_ms=1188200000
out_time=00:19:48.200000
dup_frames=0
drop_frames=0
speed=1.14x
progress=continue
frame=29831 fps= 28 q=23.0 size=  765952KiB time=00:19:53.28 bitrate=5258.3kbits/s speed=1.14x    
frame=29831
fps=28.48
stream_0_0_q=23.0
bitrate=5258.3kbits/s
total_size=784334896
out_time_us=1193280000
out_time_ms=1193280000
out_time=00:19:53.280000
dup_frames=0
drop_frames=0
speed=1.14x
progress=continue
frame=29981 fps= 28 q=23.0 size=  770048KiB time=00:19:59.28 bitrate=5260.0kbits/s speed=1.14x    
frame=29981
fps=28.48
stream_0_0_q=23.0
bitrate=5260.0kbits/s
total_size=788529200
out_time_us=1199280000
out_time_ms=1199280000
out_time=00:19:59.280000
dup_frames=0
drop_frames=0
speed=1.14x
progress=continue
frame=30131 fps= 28 q=23.0 size=  773888KiB time=00:20:05.28 bitrate=5259.9kbits/s speed=1.14x    
frame=30131
fps=28.49
stream_0_0_q=23.0
bitrate=5259.9kbits/s
total_size=792461360
out_time_us=1205280000
out_time_ms=1205280000
out_time=00:20:05.280000
dup_frames=0
drop_frames=0
speed=1.14x
progress=continue
frame=30278 fps= 28 q=23.0 size=  777472KiB time=00:20:11.16 bitrate=5258.6kbits/s speed=1.14x    
frame=30278
fps=28.49
stream_0_0_q=23.0
bitrate=5258.6kbits/s
total_size=796131376
out_time_us=1211160000
out_time_ms=1211160000
out_time=00:20:11.160000
dup_frames=0
drop_frames=0
speed=1.14x
progress=continue
frame=30419 fps= 28 q=23.0 size=  781056KiB time=00:20:16.80 bitrate=5258.4kbits/s speed=1.14x    
frame=30419
fps=28.49
stream_0_0_q=23.0
bitrate=5258.4kbits/s
total_size=799801392
out_time_us=1216800000
out_time_ms=1216800000
out_time=00:20:16.800000
dup_frames=0
drop_frames=0
speed=1.14x
progress=continue
frame=30583 fps= 29 q=23.0 size=  784896KiB time=00:20:23.36 bitrate=5255.9kbits/s speed=1.14x    
frame=30583
fps=28.51
stream_0_0_q=23.0
bitrate=5255.9kbits/s
total_size=803733552
out_time_us=1223360000
out_time_ms=1223360000
out_time=00:20:23.360000
dup_frames=0
drop_frames=0
speed=1.14x
progress=continue
frame=30746 fps= 29 q=23.0 size=  787968KiB time=00:20:29.88 bitrate=5248.5kbits/s speed=1.14x    
frame=30746
fps=28.52
stream_0_0_q=23.0
bitrate=5248.5kbits/s
total_size=806879280
out_time_us=1229880000
out_time_ms=1229880000
out_time=00:20:29.880000
dup_frames=0
drop_frames=0
speed=1.14x
progress=continue
frame=30922 fps= 29 q=23.0 size=  791552KiB time=00:20:36.92 bitrate=5242.4kbits/s speed=1.14x    
frame=30922
fps=28.56
stream_0_0_q=23.0
bitrate=5242.4kbits/s
total_size=810549296
out_time_us=1236920000
out_time_ms=1236920000
out_time=00:20:36.920000
dup_frames=0
drop_frames=0
speed=1.14x
progress=continue
frame=31072 fps= 29 q=23.0 size=  794624KiB time=00:20:42.92 bitrate=5237.3kbits/s speed=1.14x    
frame=31072
fps=28.56
stream_0_0_q=23.0
bitrate=5237.3kbits/s
total_size=813695024
out_time_us=1242920000
out_time_ms=1242920000
out_time=00:20:42.920000
dup_frames=0
drop_frames=0
speed=1.14x
progress=continue
frame=31214 fps= 29 q=23.0 size=  797696KiB time=00:20:48.60 bitrate=5233.6kbits/s speed=1.14x    
frame=31214
fps=28.56
stream_0_0_q=23.0
bitrate=5233.6kbits/s
total_size=816840752
out_time_us=1248600000
out_time_ms=1248600000
out_time=00:20:48.600000
dup_frames=0
drop_frames=0
speed=1.14x
progress=continue
frame=31359 fps= 29 q=23.0 size=  801280KiB time=00:20:54.40 bitrate=5232.8kbits/s speed=1.14x    
frame=31359
fps=28.56
stream_0_0_q=23.0
bitrate=5232.8kbits/s
total_size=820510768
out_time_us=1254400000
out_time_ms=1254400000
out_time=00:20:54.400000
dup_frames=0
drop_frames=0
speed=1.14x
progress=continue
frame=31530 fps= 29 q=23.0 size=  804864KiB time=00:21:01.16 bitrate=5228.1kbits/s speed=1.14x    
frame=31530
fps=28.59
stream_0_0_q=23.0
bitrate=5228.1kbits/s
total_size=824180784
out_time_us=1261160000
out_time_ms=1261160000
out_time=00:21:01.160000
dup_frames=0
drop_frames=0
speed=1.14x
progress=continue
frame=31692 fps= 29 q=23.0 size=  808192KiB time=00:21:07.72 bitrate=5222.5kbits/s speed=1.14x    
frame=31692
fps=28.60
stream_0_0_q=23.0
bitrate=5222.5kbits/s
total_size=827588656
out_time_us=1267720000
out_time_ms=1267720000
out_time=00:21:07.720000
dup_frames=0
drop_frames=0
speed=1.14x
progress=continue
frame=31857 fps= 29 q=23.0 size=  811776KiB time=00:21:14.32 bitrate=5218.5kbits/s speed=1.14x    
frame=31857
fps=28.62
stream_0_0_q=23.0
bitrate=5218.5kbits/s
total_size=831258672
out_time_us=1274320000
out_time_ms=1274320000
out_time=00:21:14.320000
dup_frames=0
drop_frames=0
speed=1.14x
progress=continue
frame=32028 fps= 29 q=23.0 size=  815872KiB time=00:21:21.16 bitrate=5216.9kbits/s speed=1.15x    
frame=32028
fps=28.65
stream_0_0_q=23.0
bitrate=5216.9kbits/s
total_size=835452976
out_time_us=1281160000
out_time_ms=1281160000
out_time=00:21:21.160000
dup_frames=0
drop_frames=0
speed=1.15x
progress=continue
frame=32171 fps= 29 q=23.0 size=  818944KiB time=00:21:26.88 bitrate=5213.2kbits/s speed=1.15x    
frame=32171
fps=28.64
stream_0_0_q=23.0
bitrate=5213.2kbits/s
total_size=838598704
out_time_us=1286880000
out_time_ms=1286880000
out_time=00:21:26.880000
dup_frames=0
drop_frames=0
speed=1.15x
progress=continue
frame=32310 fps= 29 q=23.0 size=  822016KiB time=00:21:32.44 bitrate=5210.3kbits/s speed=1.15x    
frame=32310
fps=28.64
stream_0_0_q=23.0
bitrate=5210.3kbits/s
total_size=841744432
out_time_us=1292440000
out_time_ms=1292440000
out_time=00:21:32.440000
dup_frames=0
drop_frames=0
speed=1.15x
progress=continue
frame=32454 fps= 29 q=23.0 size=  825344KiB time=00:21:38.00 bitrate=5209.0kbits/s speed=1.15x    
frame=32454
fps=28.64
stream_0_0_q=23.0
bitrate=5209.0kbits/s
total_size=845152304
out_time_us=1298000000
out_time_ms=1298000000
out_time=00:21:38.000000
dup_frames=0
drop_frames=0
speed=1.15x
progress=continue
frame=32574 fps= 29 q=23.0 size=  828672KiB time=00:21:42.92 bitrate=5210.2kbits/s speed=1.14x    
frame=32574
fps=28.62
stream_0_0_q=23.0
bitrate=5210.2kbits/s
total_size=848560176
out_time_us=1302920000
out_time_ms=1302920000
out_time=00:21:42.920000
dup_frames=0
drop_frames=0
speed=1.14x
progress=continue
frame=32694 fps= 29 q=23.0 size=  832256KiB time=00:21:47.80 bitrate=5213.2kbits/s speed=1.14x    
frame=32694
fps=28.60
stream_0_0_q=23.0
bitrate=5213.2kbits/s
total_size=852230192
out_time_us=1307800000
out_time_ms=1307800000
out_time=00:21:47.800000
dup_frames=0
drop_frames=0
speed=1.14x
progress=continue
frame=32824 fps= 29 q=23.0 size=  835840KiB time=00:21:53.00 bitrate=5214.9kbits/s speed=1.14x    
frame=32824
fps=28.59
stream_0_0_q=23.0
bitrate=5214.9kbits/s
total_size=855900208
out_time_us=1313000000
out_time_ms=1313000000
out_time=00:21:53.000000
dup_frames=0
drop_frames=0
speed=1.14x
progress=continue
frame=32960 fps= 29 q=23.0 size=  839168KiB time=00:21:58.44 bitrate=5214.1kbits/s speed=1.14x    
frame=32960
fps=28.58
stream_0_0_q=23.0
bitrate=5214.1kbits/s
total_size=859308080
out_time_us=1318440000
out_time_ms=1318440000
out_time=00:21:58.440000
dup_frames=0
drop_frames=0
speed=1.14x
progress=continue
frame=33092 fps= 29 q=23.0 size=  842752KiB time=00:22:03.72 bitrate=5215.5kbits/s speed=1.14x    
frame=33092
fps=28.57
stream_0_0_q=23.0
bitrate=5215.5kbits/s
total_size=862978096
out_time_us=1323720000
out_time_ms=1323720000
out_time=00:22:03.720000
dup_frames=0
drop_frames=0
speed=1.14x
progress=continue
frame=33282 fps= 29 q=23.0 size=  847104KiB time=00:22:11.32 bitrate=5212.5kbits/s speed=1.14x    
frame=33282
fps=28.61
stream_0_0_q=23.0
bitrate=5212.5kbits/s
total_size=867434544
out_time_us=1331320000
out_time_ms=1331320000
out_time=00:22:11.320000
dup_frames=0
drop_frames=0
speed=1.14x
progress=continue
frame=33437 fps= 29 q=23.0 size=  850176KiB time=00:22:17.52 bitrate=5207.1kbits/s speed=1.14x    
frame=33437
fps=28.62
stream_0_0_q=23.0
bitrate=5207.1kbits/s
total_size=870580272
out_time_us=1337520000
out_time_ms=1337520000
out_time=00:22:17.520000
dup_frames=0
drop_frames=0
speed=1.14x
progress=continue
frame=33581 fps= 29 q=23.0 size=  853248KiB time=00:22:23.20 bitrate=5203.8kbits/s speed=1.14x    
frame=33581
fps=28.62
stream_0_0_q=23.0
bitrate=5203.8kbits/s
total_size=873726000
out_time_us=1343200000
out_time_ms=1343200000
out_time=00:22:23.200000
dup_frames=0
drop_frames=0
speed=1.14x
progress=continue
frame=33754 fps= 29 q=23.0 size=  857600KiB time=00:22:30.20 bitrate=5203.3kbits/s speed=1.15x    
frame=33754
fps=28.64
stream_0_0_q=23.0
bitrate=5203.3kbits/s
total_size=878182448
out_time_us=1350200000
out_time_ms=1350200000
out_time=00:22:30.200000
dup_frames=0
drop_frames=0
speed=1.15x
progress=continue
frame=33914 fps= 29 q=23.0 size=  861184KiB time=00:22:36.60 bitrate=5200.4kbits/s speed=1.15x    
frame=33914
fps=28.66
stream_0_0_q=23.0
bitrate=5200.4kbits/s
total_size=881852464
out_time_us=1356600000
out_time_ms=1356600000
out_time=00:22:36.600000
dup_frames=0
drop_frames=0
speed=1.15x
progress=continue
frame=34053 fps= 29 q=23.0 size=  864768KiB time=00:22:42.16 bitrate=5200.7kbits/s speed=1.15x    
frame=34053
fps=28.65
stream_0_0_q=23.0
bitrate=5200.7kbits/s
total_size=885522480
out_time_us=1362160000
out_time_ms=1362160000
out_time=00:22:42.160000
dup_frames=0
drop_frames=0
speed=1.15x
progress=continue
frame=34162 fps= 29 q=23.0 size=  868096KiB time=00:22:46.52 bitrate=5204.1kbits/s speed=1.14x    
frame=34162
fps=28.62
stream_0_0_q=23.0
bitrate=5204.1kbits/s
total_size=888930352
out_time_us=1366520000
out_time_ms=1366520000
out_time=00:22:46.520000
dup_frames=0
drop_frames=0
speed=1.14x
progress=continue
frame=34286 fps= 29 q=23.0 size=  871936KiB time=00:22:51.48 bitrate=5208.2kbits/s speed=1.14x    
frame=34286
fps=28.61
stream_0_0_q=23.0
bitrate=5208.2kbits/s
total_size=892862512
out_time_us=1371480000
out_time_ms=1371480000
out_time=00:22:51.480000
dup_frames=0
drop_frames=0
speed=1.14x
progress=continue
frame=34419 fps= 29 q=23.0 size=  875776KiB time=00:22:56.76 bitrate=5211.0kbits/s speed=1.14x    
frame=34419
fps=28.60
stream_0_0_q=23.0
bitrate=5211.0kbits/s
total_size=896794672
out_time_us=1376760000
out_time_ms=1376760000
out_time=00:22:56.760000
dup_frames=0
drop_frames=0
speed=1.14x
progress=continue
frame=34562 fps= 29 q=23.0 size=  879616KiB time=00:23:02.52 bitrate=5212.1kbits/s speed=1.14x    
frame=34562
fps=28.60
stream_0_0_q=23.0
bitrate=5212.1kbits/s
total_size=900726832
out_time_us=1382520000
out_time_ms=1382520000
out_time=00:23:02.520000
dup_frames=0
drop_frames=0
speed=1.14x
progress=continue
frame=34712 fps= 29 q=23.0 size=  883200KiB time=00:23:08.48 bitrate=5210.9kbits/s speed=1.14x    
frame=34712
fps=28.60
stream_0_0_q=23.0
bitrate=5210.9kbits/s
total_size=904396848
out_time_us=1388480000
out_time_ms=1388480000
out_time=00:23:08.480000
dup_frames=0
drop_frames=0
speed=1.14x
progress=continue
frame=34840 fps= 29 q=20.0 size=  886528KiB time=00:23:13.64 bitrate=5211.1kbits/s speed=1.14x    
frame=34840
fps=28.59
stream_0_0_q=20.0
bitrate=5211.1kbits/s
total_size=907804720
out_time_us=1393640000
out_time_ms=1393640000
out_time=00:23:13.640000
dup_frames=0
drop_frames=0
speed=1.14x
progress=continue
frame=34980 fps= 29 q=23.0 size=  889856KiB time=00:23:19.24 bitrate=5209.8kbits/s speed=1.14x    
frame=34980
fps=28.58
stream_0_0_q=23.0
bitrate=5209.8kbits/s
total_size=911212592
out_time_us=1399240000
out_time_ms=1399240000
out_time=00:23:19.240000
dup_frames=0
drop_frames=0
speed=1.14x
progress=continue
frame=35146 fps= 29 q=23.0 size=  893952KiB time=00:23:25.88 bitrate=5209.0kbits/s speed=1.14x    
frame=35146
fps=28.60
stream_0_0_q=23.0
bitrate=5209.0kbits/s
total_size=915406896
out_time_us=1405880000
out_time_ms=1405880000
out_time=00:23:25.880000
dup_frames=0
drop_frames=0
speed=1.14x
progress=continue
frame=35279 fps= 29 q=23.0 size=  897792KiB time=00:23:31.20 bitrate=5211.7kbits/s speed=1.14x    
frame=35279
fps=28.59
stream_0_0_q=23.0
bitrate=5211.7kbits/s
total_size=919339056
out_time_us=1411200000
out_time_ms=1411200000
out_time=00:23:31.200000
dup_frames=0
drop_frames=0
speed=1.14x
progress=continue
frame=35418 fps= 29 q=23.0 size=  901120KiB time=00:23:36.72 bitrate=5210.6kbits/s speed=1.14x    
frame=35418
fps=28.59
stream_0_0_q=23.0
bitrate=5210.6kbits/s
total_size=922746928
out_time_us=1416720000
out_time_ms=1416720000
out_time=00:23:36.720000
dup_frames=0
drop_frames=0
speed=1.14x
progress=continue
frame=35571 fps= 29 q=23.0 size=  904960KiB time=00:23:42.88 bitrate=5210.2kbits/s speed=1.14x    
frame=35571
fps=28.60
stream_0_0_q=23.0
bitrate=5210.2kbits/s
total_size=926679088
out_time_us=1422880000
out_time_ms=1422880000
out_time=00:23:42.880000
dup_frames=0
drop_frames=0
speed=1.14x
progress=continue
frame=35714 fps= 29 q=23.0 size=  908544KiB time=00:23:48.60 bitrate=5209.9kbits/s speed=1.14x    
frame=35714
fps=28.60
stream_0_0_q=23.0
bitrate=5209.9kbits/s
total_size=930349104
out_time_us=1428600000
out_time_ms=1428600000
out_time=00:23:48.600000
dup_frames=0
drop_frames=0
speed=1.14x
progress=continue
frame=35842 fps= 29 q=23.0 size=  912384KiB time=00:23:53.72 bitrate=5213.2kbits/s speed=1.14x    
frame=35842
fps=28.58
stream_0_0_q=23.0
bitrate=5213.2kbits/s
total_size=934281264
out_time_us=1433720000
out_time_ms=1433720000
out_time=00:23:53.720000
dup_frames=0
drop_frames=0
speed=1.14x
progress=continue
frame=35954 fps= 29 q=23.0 size=  918016KiB time=00:23:58.20 bitrate=5229.0kbits/s speed=1.14x    
frame=35954
fps=28.56
stream_0_0_q=23.0
bitrate=5229.0kbits/s
total_size=940048432
out_time_us=1438200000
out_time_ms=1438200000
out_time=00:23:58.200000
dup_frames=0
drop_frames=0
speed=1.14x
progress=continue
frame=36056 fps= 29 q=23.0 size=  922112KiB time=00:24:02.28 bitrate=5237.5kbits/s speed=1.14x    
frame=36056
fps=28.52
stream_0_0_q=23.0
bitrate=5237.5kbits/s
total_size=944242736
out_time_us=1442280000
out_time_ms=1442280000
out_time=00:24:02.280000
dup_frames=0
drop_frames=0
speed=1.14x
progress=continue
frame=36180 fps= 29 q=23.0 size=  926464KiB time=00:24:07.24 bitrate=5244.2kbits/s speed=1.14x    
frame=36180
fps=28.51
stream_0_0_q=23.0
bitrate=5244.2kbits/s
total_size=948699184
out_time_us=1447240000
out_time_ms=1447240000
out_time=00:24:07.240000
dup_frames=0
drop_frames=0
speed=1.14x
progress=continue
frame=36274 fps= 28 q=23.0 size=  933376KiB time=00:24:10.88 bitrate=5270.1kbits/s speed=1.14x    
frame=36274
fps=28.47
stream_0_0_q=23.0
bitrate=5270.1kbits/s
total_size=955777072
out_time_us=1450880000
out_time_ms=1450880000
out_time=00:24:10.880000
dup_frames=0
drop_frames=0
speed=1.14x
progress=continue
frame=36393 fps= 28 q=23.0 size=  939776KiB time=00:24:15.68 bitrate=5288.7kbits/s speed=1.14x    
frame=36393
fps=28.45
stream_0_0_q=23.0
bitrate=5288.7kbits/s
total_size=962330672
out_time_us=1455680000
out_time_ms=1455680000
out_time=00:24:15.680000
dup_frames=0
drop_frames=0
speed=1.14x
progress=continue
frame=36536 fps= 28 q=23.0 size=  944896KiB time=00:24:21.48 bitrate=5296.4kbits/s speed=1.14x    
frame=36536
fps=28.45
stream_0_0_q=23.0
bitrate=5296.4kbits/s
total_size=967573552
out_time_us=1461480000
out_time_ms=1461480000
out_time=00:24:21.480000
dup_frames=0
drop_frames=0
speed=1.14x
progress=continue
frame=36657 fps= 28 q=23.0 size=  949248KiB time=00:24:26.28 bitrate=5303.4kbits/s speed=1.14x    
frame=36657
fps=28.43
stream_0_0_q=23.0
bitrate=5303.4kbits/s
total_size=972030000
out_time_us=1466280000
out_time_ms=1466280000
out_time=00:24:26.280000
dup_frames=0
drop_frames=0
speed=1.14x
progress=continue
frame=36780 fps= 28 q=23.0 size=  955392KiB time=00:24:31.20 bitrate=5319.9kbits/s speed=1.14x    
frame=36780
fps=28.41
stream_0_0_q=23.0
bitrate=5319.9kbits/s
total_size=978321456
out_time_us=1471200000
out_time_ms=1471200000
out_time=00:24:31.200000
dup_frames=0
drop_frames=0
speed=1.14x
progress=continue
frame=36898 fps= 28 q=23.0 size=  960512KiB time=00:24:35.96 bitrate=5331.1kbits/s speed=1.14x    
frame=36898
fps=28.40
stream_0_0_q=23.0
bitrate=5331.1kbits/s
total_size=983564336
out_time_us=1475960000
out_time_ms=1475960000
out_time=00:24:35.960000
dup_frames=0
drop_frames=0
speed=1.14x
progress=continue
frame=37018 fps= 28 q=23.0 size=  965376KiB time=00:24:40.72 bitrate=5340.9kbits/s speed=1.14x    
frame=37018
fps=28.38
stream_0_0_q=23.0
bitrate=5340.9kbits/s
total_size=988545072
out_time_us=1480720000
out_time_ms=1480720000
out_time=00:24:40.720000
dup_frames=0
drop_frames=0
speed=1.14x
progress=continue
frame=37118 fps= 28 q=23.0 size=  971264KiB time=00:24:44.72 bitrate=5359.0kbits/s speed=1.13x    
frame=37118
fps=28.34
stream_0_0_q=23.0
bitrate=5359.0kbits/s
total_size=994574384
out_time_us=1484720000
out_time_ms=1484720000
out_time=00:24:44.720000
dup_frames=0
drop_frames=0
speed=1.13x
progress=continue
frame=37230 fps= 28 q=23.0 size=  975872KiB time=00:24:49.24 bitrate=5368.1kbits/s speed=1.13x    
frame=37230
fps=28.32
stream_0_0_q=23.0
bitrate=5368.1kbits/s
total_size=999292976
out_time_us=1489240000
out_time_ms=1489240000
out_time=00:24:49.240000
dup_frames=0
drop_frames=0
speed=1.13x
progress=continue
frame=37351 fps= 28 q=23.0 size=  980480KiB time=00:24:54.08 bitrate=5375.9kbits/s speed=1.13x    
frame=37351
fps=28.30
stream_0_0_q=23.0
bitrate=5375.9kbits/s
total_size=1004011568
out_time_us=1494080000
out_time_ms=1494080000
out_time=00:24:54.080000
dup_frames=0
drop_frames=0
speed=1.13x
progress=continue
frame=37473 fps= 28 q=23.0 size=  985344KiB time=00:24:58.88 bitrate=5385.3kbits/s speed=1.13x    
frame=37473
fps=28.29
stream_0_0_q=23.0
bitrate=5385.3kbits/s
total_size=1008992304
out_time_us=1498880000
out_time_ms=1498880000
out_time=00:24:58.880000
dup_frames=0
drop_frames=0
speed=1.13x
progress=continue
frame=37574 fps= 28 q=23.0 size=  991744KiB time=00:25:03.00 bitrate=5405.4kbits/s speed=1.13x    
frame=37574
fps=28.26
stream_0_0_q=23.0
bitrate=5405.4kbits/s
total_size=1015545904
out_time_us=1503000000
out_time_ms=1503000000
out_time=00:25:03.000000
dup_frames=0
drop_frames=0
speed=1.13x
progress=continue
frame=37698 fps= 28 q=23.0 size=  996096KiB time=00:25:07.96 bitrate=5411.3kbits/s speed=1.13x    
frame=37698
fps=28.24
stream_0_0_q=23.0
bitrate=5411.3kbits/s
total_size=1020002352
out_time_us=1507960000
out_time_ms=1507960000
out_time=00:25:07.960000
dup_frames=0
drop_frames=0
speed=1.13x
progress=continue
frame=37811 fps= 28 q=23.0 size= 1001728KiB time=00:25:12.48 bitrate=5425.6kbits/s speed=1.13x    
frame=37811
fps=28.22
stream_0_0_q=23.0
bitrate=5425.6kbits/s
total_size=1025769520
out_time_us=1512480000
out_time_ms=1512480000
out_time=00:25:12.480000
dup_frames=0
drop_frames=0
speed=1.13x
progress=continue
frame=37932 fps= 28 q=23.0 size= 1007616KiB time=00:25:17.32 bitrate=5440.1kbits/s speed=1.13x    
frame=37932
fps=28.21
stream_0_0_q=23.0
bitrate=5440.1kbits/s
total_size=1031798832
out_time_us=1517320000
out_time_ms=1517320000
out_time=00:25:17.320000
dup_frames=0
drop_frames=0
speed=1.13x
progress=continue
frame=38069 fps= 28 q=23.0 size= 1011968KiB time=00:25:22.72 bitrate=5444.2kbits/s speed=1.13x    
frame=38069
fps=28.20
stream_0_0_q=23.0
bitrate=5444.2kbits/s
total_size=1036255280
out_time_us=1522720000
out_time_ms=1522720000
out_time=00:25:22.720000
dup_frames=0
drop_frames=0
speed=1.13x
progress=continue
frame=38201 fps= 28 q=23.0 size= 1016576KiB time=00:25:27.96 bitrate=5450.3kbits/s speed=1.13x    
frame=38201
fps=28.19
stream_0_0_q=23.0
bitrate=5450.3kbits/s
total_size=1040973872
out_time_us=1527960000
out_time_ms=1527960000
out_time=00:25:27.960000
dup_frames=0
drop_frames=0
speed=1.13x
progress=continue
frame=38321 fps= 28 q=23.0 size= 1022464KiB time=00:25:32.88 bitrate=5464.2kbits/s speed=1.13x    
frame=38321
fps=28.18
stream_0_0_q=23.0
bitrate=5464.2kbits/s
total_size=1047003184
out_time_us=1532880000
out_time_ms=1532880000
out_time=00:25:32.880000
dup_frames=0
drop_frames=0
speed=1.13x
progress=continue
frame=38452 fps= 28 q=23.0 size= 1027840KiB time=00:25:38.12 bitrate=5474.3kbits/s speed=1.13x    
frame=38452
fps=28.17
stream_0_0_q=23.0
bitrate=5474.3kbits/s
total_size=1052508208
out_time_us=1538120000
out_time_ms=1538120000
out_time=00:25:38.120000
dup_frames=0
drop_frames=0
speed=1.13x
progress=continue
frame=38565 fps= 28 q=20.0 size= 1031936KiB time=00:25:42.64 bitrate=5480.0kbits/s speed=1.13x    
frame=38565
fps=28.15
stream_0_0_q=20.0
bitrate=5480.0kbits/s
total_size=1056702512
out_time_us=1542640000
out_time_ms=1542640000
out_time=00:25:42.640000
dup_frames=0
drop_frames=0
speed=1.13x
progress=continue
frame=38688 fps= 28 q=23.0 size= 1037312KiB time=00:25:47.56 bitrate=5491.0kbits/s speed=1.13x    
frame=38688
fps=28.14
stream_0_0_q=23.0
bitrate=5491.0kbits/s
total_size=1062207536
out_time_us=1547560000
out_time_ms=1547560000
out_time=00:25:47.560000
dup_frames=0
drop_frames=0
speed=1.13x
progress=continue
frame=38818 fps= 28 q=23.0 size= 1042176KiB time=00:25:52.68 bitrate=5498.6kbits/s speed=1.13x    
frame=38818
fps=28.13
stream_0_0_q=23.0
bitrate=5498.6kbits/s
total_size=1067188272
out_time_us=1552680000
out_time_ms=1552680000
out_time=00:25:52.680000
dup_frames=0
drop_frames=0
speed=1.13x
progress=continue
frame=38941 fps= 28 q=23.0 size= 1046528KiB time=00:25:57.68 bitrate=5503.8kbits/s speed=1.12x    
frame=38941
fps=28.11
stream_0_0_q=23.0
bitrate=5503.8kbits/s
total_size=1071644720
out_time_us=1557680000
out_time_ms=1557680000
out_time=00:25:57.680000
dup_frames=0
drop_frames=0
speed=1.12x
progress=continue
frame=39056 fps= 28 q=23.0 size= 1053440KiB time=00:26:02.28 bitrate=5523.8kbits/s speed=1.12x    
frame=39056
fps=28.09
stream_0_0_q=23.0
bitrate=5523.8kbits/s
total_size=1078722608
out_time_us=1562280000
out_time_ms=1562280000
out_time=00:26:02.280000
dup_frames=0
drop_frames=0
speed=1.12x
progress=continue
frame=39161 fps= 28 q=23.0 size= 1060864KiB time=00:26:06.44 bitrate=5548.0kbits/s speed=1.12x    
frame=39161
fps=28.07
stream_0_0_q=23.0
bitrate=5548.0kbits/s
total_size=1086324784
out_time_us=1566440000
out_time_ms=1566440000
out_time=00:26:06.440000
dup_frames=0
drop_frames=0
speed=1.12x
progress=continue
[mp4 @ 000001bab61e5940] Starting second pass: moving the moov atom to the beginning of the file
[out#0/mp4 @ 000001bab4261b80] video:1028218KiB audio:36944KiB subtitle:0KiB other streams:0KiB global headers:0KiB muxing overhead: 0.085203%
frame=39229 fps= 28 q=-1.0 Lsize= 1066069KiB time=00:26:09.20 bitrate=5565.4kbits/s speed=1.12x    
frame=39229
fps=28.04
stream_0_0_q=-1.0
bitrate=5565.4kbits/s
total_size=1091654782
out_time_us=1569200000
out_time_ms=1569200000
out_time=00:26:09.200000
dup_frames=0
drop_frames=0
speed=1.12x
progress=end
[libx264 @ 000001bab6d82040] frame I:1570  Avg QP:13.49  size:143270
[libx264 @ 000001bab6d82040] frame P:37659 Avg QP:17.23  size: 21986
[libx264 @ 000001bab6d82040] mb I  I16..4: 14.3% 66.9% 18.8%
[libx264 @ 000001bab6d82040] mb P  I16..4:  2.3%  6.4%  0.7%  P16..4: 32.0% 10.1%  4.4%  0.0%  0.0%    skip:44.1%
[libx264 @ 000001bab6d82040] 8x8 transform intra:68.0% inter:80.3%
[libx264 @ 000001bab6d82040] coded y,uvDC,uvAC intra: 51.5% 51.1% 24.4% inter: 13.9% 11.1% 0.4%
[libx264 @ 000001bab6d82040] i16 v,h,dc,p: 33% 20%  7% 40%
[libx264 @ 000001bab6d82040] i8 v,h,dc,ddl,ddr,vr,hd,vl,hu: 35% 18% 18%  4%  4%  6%  5%  6%  4%
[libx264 @ 000001bab6d82040] i4 v,h,dc,ddl,ddr,vr,hd,vl,hu: 39% 21% 10%  4%  7%  6%  5%  5%  3%
[libx264 @ 000001bab6d82040] i8c dc,h,v,p: 57% 17% 20%  5%
[libx264 @ 000001bab6d82040] Weighted P-Frames: Y:1.1% UV:0.5%
[libx264 @ 000001bab6d82040] ref P L0: 63.0%  8.7% 19.5%  8.7%  0.0%
[libx264 @ 000001bab6d82040] kb/s:5367.94
[aac @ 000001bab61d1900] Qavg: 1529.722
